<svg width="320" height="151" viewBox="0 0 320 151" fill="none" xmlns="http://www.w3.org/2000/svg">
<path d="M119.99 41.6812C116.349 41.6812 112.898 42.4149 109.665 43.8821C106.024 45.4581 102.79 47.5775 99.9643 50.2946C99.6383 50.6207 99.3394 50.7566 99.0133 50.7566C98.4971 50.7566 98.2254 50.2403 98.2254 49.1806V42.3062H96.6494C94.367 43.7735 91.0792 44.8603 86.7861 45.594C85.4275 45.8113 84.3135 45.9472 83.4168 45.9744C82.5202 46.0287 81.1888 46.0559 79.4226 46.0559V47.4688C82.4387 47.5775 84.4765 48.3926 85.5362 49.8871C86.5687 51.4087 87.1122 53.6096 87.1122 56.5441V105.833C87.1122 107.192 87.0307 108.523 86.8676 109.828C86.7046 111.132 86.3785 112.3 85.8623 113.36C85.346 114.392 84.5852 115.262 83.607 115.941C82.6017 116.621 81.2975 116.947 79.6128 116.947V118.523H105.752V116.947C102.41 116.838 100.318 115.724 99.5024 113.577C98.6601 111.431 98.2525 108.849 98.2525 105.833V65.5651C98.2525 57.7397 100.698 53.5552 101.649 52.251C101.758 52.1151 101.866 51.9521 102.002 51.7891C102.518 51.1098 103.279 50.3762 104.285 49.5882C105.263 48.8002 106.486 48.0666 107.871 47.3873C109.284 46.708 110.86 46.3276 112.653 46.2189H114.066C115.941 46.2189 117.599 46.5178 119.066 47.0884C120.533 47.659 121.81 48.3111 122.897 49.0448C123.984 49.7784 124.854 50.4577 125.478 51.0826C126.103 51.7076 126.457 52.1151 126.565 52.3325C127.299 51.0826 127.978 49.8327 128.603 48.5828C129.228 47.3329 129.907 46.083 130.641 44.8332C127.815 42.7409 124.283 41.6812 119.99 41.6812Z" fill="white"/>
<path d="M256.744 113.577C255.902 111.431 255.495 108.849 255.495 105.833V0H253.919C251.609 1.46727 248.348 2.49979 244.055 3.12473C242.697 3.34211 241.583 3.47797 240.686 3.58665C239.789 3.69534 238.458 3.74968 236.692 3.74968V5.16261C239.708 5.27129 241.746 6.05927 242.805 7.49936C243.838 8.96663 244.381 11.1947 244.381 14.2379V105.833C244.381 107.192 244.3 108.523 244.137 109.828C243.974 111.132 243.648 112.3 243.132 113.36C242.615 114.392 241.854 115.262 240.876 115.941C239.871 116.621 238.567 116.947 236.882 116.947V118.523H263.021V116.947C259.652 116.838 257.56 115.724 256.744 113.577Z" fill="white"/>
<path d="M319.783 96.0516C319.674 95.0734 319.457 94.0409 319.158 93.0084C318.207 90.1825 316.739 87.7099 314.701 85.5634C312.664 83.4168 310.463 81.4604 308.044 79.6943C305.653 77.9281 303.154 76.2707 300.545 74.7762C297.937 73.2546 295.546 71.6787 293.345 69.994C290.627 68.0105 288.209 65.7009 286.063 63.0381C283.916 60.3753 283.074 57.2234 283.481 53.5824C283.78 49.9414 285.084 47.3329 287.394 45.757C289.676 44.181 292.285 43.4202 295.219 43.4202C297.611 43.4202 300.056 43.8549 302.501 44.7516C304.947 45.6483 307.066 46.871 308.832 48.4198C311.224 50.4033 312.935 52.6857 313.914 55.2942C314.892 57.9027 315.408 60.1036 315.408 61.8697H316.821V41.6812H315.408C315.299 42.8224 314.946 43.8006 314.321 44.5886C313.696 45.3766 312.799 45.757 311.658 45.757H311.196C310.055 45.6483 308.995 45.3766 308.072 44.8875C307.121 44.4255 306.197 43.9636 305.246 43.5561C303.588 43.0398 301.904 42.6051 300.246 42.2246C298.589 41.8714 296.85 41.6269 295.084 41.5182H294.133C291.008 41.5182 287.856 41.9529 284.677 42.8496C281.498 43.7463 278.699 45.3766 276.308 47.7677C273.591 50.4848 272.205 53.5824 272.151 57.0875C272.096 60.5927 273.075 63.8533 275.058 66.8693C276.009 68.3366 277.069 69.6951 278.264 70.945C279.46 72.1949 280.791 73.3905 282.259 74.5317C285.492 76.9228 288.916 79.0965 292.502 81.0257C296.089 82.9549 299.404 85.2645 302.447 87.9816C303.914 89.3402 305.246 90.9162 306.441 92.6823C307.637 94.4485 308.588 96.3233 309.267 98.3068C309.946 100.29 310.245 102.301 310.218 104.339C310.164 106.377 309.566 108.333 308.425 110.208C306.441 113.441 303.615 115.479 299.974 116.322C298.725 116.648 297.312 116.784 295.763 116.784C294.513 116.784 293.263 116.675 292.013 116.457C290.763 116.24 289.622 115.996 288.562 115.67C284.378 114.094 280.954 111.458 278.237 107.681C276.987 105.915 276.036 103.959 275.411 101.812C274.786 99.6654 274.406 97.5189 274.324 95.318C274.026 95.4267 273.591 95.481 273.075 95.481V118.468H274.488C274.596 117.626 274.759 116.838 274.949 116.05C275.167 115.262 275.629 114.718 276.362 114.42C276.77 114.202 277.15 114.094 277.449 114.094C277.965 114.094 278.509 114.229 279.08 114.474C279.65 114.746 280.194 114.963 280.71 115.18C281.552 115.697 282.422 116.104 283.373 116.349C284.324 116.621 285.193 116.892 286.035 117.218C289.051 118.468 292.285 119.093 295.736 119.093C298.643 119.093 301.55 118.658 304.431 117.762C307.311 116.865 309.892 115.561 312.175 113.849C314.457 112.137 316.332 110.045 317.718 107.6C319.13 105.154 319.891 102.301 320 99.0677C319.946 98.0623 319.891 97.057 319.783 96.0516Z" fill="white"/>
<path d="M223.731 113.496C223.215 112.463 222.862 111.295 222.726 109.963C222.563 108.659 222.481 107.219 222.481 105.67V32.1983C222.644 30.9756 222.78 29.7801 222.862 28.5573C223.025 26.3564 223.106 24.1284 223.106 21.8188C223.106 21.7916 223.106 21.7644 223.079 21.7644H223.106V20.8406L220.742 19.6451C218.025 18.2865 215.824 16.0856 214.465 13.3684L213.27 11.0045H212.346L211.151 13.3684C209.792 16.0856 207.591 18.2865 204.874 19.6451L202.51 20.8406V21.7644L204.874 22.96C207.591 24.3186 209.792 26.5195 211.151 29.2366L212.346 31.6006H213.27L214.465 29.2366C215.824 26.5195 218.025 24.3186 220.742 22.96L221.666 22.4981C221.639 23.2589 221.584 24.0197 221.53 24.7805L221.286 28.3671C221.123 30.7311 220.661 33.0407 220.09 35.3774C219.003 39.9966 217.101 44.3984 214.547 48.4198C213.27 50.4033 211.721 52.1966 210.064 53.9085C208.379 55.5931 206.613 57.1962 204.684 58.582C202.782 59.9949 200.717 61.1633 198.597 62.2773C196.478 63.3913 194.304 64.3695 192.103 65.2662C187.647 67.0052 183.082 68.4453 178.409 69.5593L164.388 73.0644C155.041 75.2925 145.803 78.7705 138.14 84.6395C134.907 86.9763 132.516 89.9924 130.94 93.6333C129.907 95.8343 129.364 98.334 129.364 101.133C129.364 104.692 130.234 107.844 131.945 110.588C133.657 113.36 136.13 115.506 139.39 117.082C141.483 118.115 143.656 118.876 145.966 119.338C148.248 119.8 150.612 120.044 153.003 120.044C157.704 120.044 162.133 119.256 166.29 117.707C170.882 115.941 174.632 112.952 177.566 108.795C177.974 108.17 178.246 107.898 178.354 108.007C178.572 108.116 178.68 108.36 178.68 108.795V118.332H180.093C180.311 118.224 180.501 118.115 180.718 118.006C180.936 117.898 181.18 117.735 181.506 117.544C182.349 117.028 183.49 116.512 184.957 115.968C186.424 115.452 188.082 115.017 189.957 114.719C190.799 114.61 191.641 114.528 192.538 114.474C193.435 114.42 194.331 114.392 195.282 114.392H197.483V113.034C194.549 112.925 192.62 112.137 191.614 110.697C190.609 109.23 190.065 107.056 189.984 104.122V68.9072C191.342 68.3909 192.674 67.8747 193.978 67.3312C195.282 66.815 196.614 66.19 197.972 65.4564C199.956 64.5054 201.885 63.4185 203.76 62.1686C205.635 60.9187 207.401 59.5602 209.086 58.0929C209.846 57.4408 210.58 56.7343 211.286 56.0007V105.643C211.286 107.002 211.205 108.36 211.042 109.719C210.879 111.078 210.553 112.273 210.037 113.306C209.52 114.338 208.759 115.18 207.781 115.805C206.776 116.43 205.472 116.756 203.787 116.756V118.332H230.062V116.756C228.405 116.756 227.073 116.457 226.068 115.887C225.008 115.371 224.247 114.555 223.731 113.496ZM178.653 101.296C178.246 102.437 177.729 103.551 177.159 104.584C176.588 105.616 175.936 106.676 175.203 107.708C173.545 109.8 171.86 111.567 170.203 113.034C168.111 114.61 166.019 115.86 163.953 116.784C161.671 117.735 159.253 118.196 156.753 118.196C154.036 118.196 151.645 117.626 149.553 116.485C147.46 115.343 145.803 113.822 144.553 111.947C143.194 110.181 142.216 108.034 141.591 105.535C140.966 103.143 140.64 100.725 140.64 98.334C140.64 95.8342 141.048 93.3888 141.89 90.9705C142.732 88.5794 144.037 86.4872 145.803 84.7211C147.786 82.9549 150.014 81.5692 152.541 80.5638C155.041 79.5856 157.541 78.6618 160.041 77.8195C162.133 77.0858 164.225 76.4337 166.372 75.8631C168.518 75.2925 170.611 74.7491 172.703 74.2328C173.735 73.9068 174.741 73.635 175.664 73.3633C176.615 73.0916 177.594 72.8199 178.626 72.4938V101.296H178.653Z" fill="white"/>
<path d="M66.2444 111.485C64.6141 109.909 62.8479 108.768 60.9187 108.034C58.9896 107.301 57.1419 106.947 55.3757 106.947C51.9249 106.947 48.6643 107.735 45.594 109.284C42.5236 110.86 39.5075 112.572 36.6002 114.447C33.5841 116.322 30.4865 118.033 27.3618 119.609C24.2371 121.185 20.9493 121.946 17.4985 121.946C15.841 121.946 14.1564 121.702 12.4989 121.24C10.8415 120.778 9.34703 120.071 8.0428 119.12C6.73856 118.169 5.67887 116.974 4.83655 115.534C3.99423 114.066 3.58665 112.355 3.58665 110.371C3.58665 108.605 3.96705 107.029 4.75503 105.67C5.54301 104.312 6.46684 103.171 7.58088 102.22C8.66774 101.269 9.86329 100.562 11.1675 100.019C12.4718 99.5024 13.5858 99.2307 14.5368 99.2307H14.6998C20.5417 103.089 27.0629 105.018 34.2634 105.018C38.8554 105.018 43.2029 104.203 47.3329 102.6C51.463 100.997 55.1312 98.6601 58.3646 95.6441C61.7067 92.628 64.2065 89.2316 65.864 85.4819C67.5214 81.7322 68.3638 77.7651 68.3638 73.5807C68.3638 69.3148 67.4671 65.2662 65.7009 61.4622C63.9348 57.6582 61.4893 54.3432 58.3374 51.5174C55.2127 48.6915 51.5989 46.4634 47.4688 44.7788C43.3387 43.1213 38.9369 42.279 34.2362 42.279C29.5355 42.279 25.1337 43.1213 21.0037 44.7788C16.8736 46.4363 13.2597 48.6915 10.135 51.5174C7.01027 54.3432 4.56483 57.6582 2.7715 61.4622C1.00535 65.2662 0.108686 69.3148 0.108686 73.5807C0.108686 73.6079 0.108686 73.6351 0.108686 73.6622C0.108686 77.8195 0.978178 81.7322 2.68999 85.4819C4.4018 89.2316 6.87442 92.628 10.135 95.6441C10.4611 95.9701 10.76 96.269 11.086 96.5951C11.4121 96.9211 11.7653 97.1657 12.1729 97.383C11.1404 97.7091 9.91764 98.2254 8.50471 98.959C7.09179 99.6926 5.76038 100.671 4.51049 101.921C3.26059 103.171 2.2009 104.747 1.30424 106.621C0.434746 108.496 0 110.806 0 113.496C0 115.153 0.326059 117.028 1.00535 119.039C1.68464 121.077 2.74433 122.952 4.2116 124.663C5.67887 126.375 7.60805 127.815 9.99915 128.956C12.3903 130.098 15.3248 130.668 18.7484 130.668C23.123 130.668 27.0086 129.853 30.405 128.25C33.8015 126.62 37.0077 124.935 40.0238 123.169C42.5236 121.702 44.9418 120.37 47.3058 119.175C49.6425 117.979 52.1695 117.381 54.8866 117.381C58.3374 117.381 61.0003 118.577 62.8751 120.968C64.3424 122.625 65.2119 124.609 65.5379 126.919C65.864 129.201 65.864 131.239 65.5379 133.032C65.2119 134.798 64.6413 136.564 63.8261 138.276C62.9838 139.988 61.9241 141.564 60.6199 142.977C59.3156 144.39 57.7397 145.531 55.9192 146.428C54.0987 147.324 51.9793 147.759 49.5882 147.759C42.3877 147.759 36.8719 144.825 33.0135 139.01L32.3886 139.635C32.9048 140.776 33.6113 141.972 34.5079 143.222C35.4046 144.471 36.5186 145.585 37.8772 146.591C39.2358 147.569 40.8661 148.411 42.7953 149.091C44.7245 149.77 46.9797 150.096 49.5882 150.096C52.7129 150.096 55.6474 149.444 58.3374 148.14C61.0546 146.835 63.4185 145.096 65.4564 142.895C67.4943 140.695 69.0702 138.113 70.2386 135.152C71.3798 132.19 71.9504 129.011 71.9504 125.696C71.9504 122.462 71.407 119.664 70.3201 117.327C69.2332 114.99 67.8747 113.034 66.2444 111.485ZM10.6513 73.6079C10.6513 69.2333 11.4392 64.9401 12.988 60.7829C14.564 56.6256 16.6834 53.1748 19.4005 50.4577C23.3676 46.3819 28.2041 44.3441 33.9373 44.3441H34.2634H34.5895C40.3227 44.3441 45.1864 46.3819 49.1263 50.4577C51.8434 53.1748 53.9628 56.6256 55.5388 60.7829C57.1147 64.9673 57.8755 69.2333 57.8755 73.6079C57.7668 76.6239 57.2506 79.8574 56.2996 83.3082C55.3486 86.7589 53.9356 89.938 52.0065 92.8454C50.0773 95.7799 47.6862 98.1982 44.806 100.127C41.9258 102.057 38.5837 103.035 34.7253 103.035H34.2634H33.9373C28.4215 103.035 23.6121 100.997 19.5364 96.9211C16.8192 94.0953 14.6727 90.6173 13.0424 86.4329C11.4392 82.2756 10.6513 77.9825 10.6513 73.6079Z" fill="white"/>
<path d="M138.765 57.0332C138.657 56.8158 138.901 56.3811 139.472 55.7018C140.042 55.0225 140.423 54.5877 140.64 54.3704C141.591 53.2292 142.624 52.1695 143.765 51.2456C146.781 48.8545 150.014 47.034 153.465 45.757C155.231 45.132 157.378 44.806 159.878 44.806C161.97 44.806 164.089 45.1048 166.29 45.6754C168.491 46.246 170.475 47.1971 172.322 48.5013C174.143 49.8055 175.664 51.5717 176.86 53.8269C178.056 56.0822 178.653 58.8537 178.653 62.1958V65.7824C182.267 64.9401 185.827 63.8804 189.223 62.4675C189.06 61.761 188.87 61.0546 188.653 60.4025C188.245 59.0982 187.756 57.8755 187.24 56.7343C186.207 54.6421 184.876 52.6857 183.245 50.8652C181.615 49.0447 179.659 47.4959 177.376 46.246C174.252 44.4799 171.018 43.2843 167.676 42.6594C165.801 42.3333 163.872 42.1975 161.888 42.1975C158.546 42.1975 155.231 42.6322 151.944 43.5289C148.656 44.4255 145.558 45.7026 142.624 47.3601C141.483 48.0937 140.341 48.8545 139.173 49.6153C138.032 50.4033 136.972 51.2456 136.048 52.1966C136.456 53.039 136.891 53.8269 137.298 54.6149C137.787 55.3757 138.249 56.1909 138.765 57.0332Z" fill="white"/>
<path d="M61.4078 33.9373C58.6907 35.9208 56.2996 38.5837 54.2073 41.9258C53.9356 42.3333 53.6639 42.7681 53.4194 43.2572C54.1258 43.5832 54.941 43.9636 55.7833 44.4256C55.9463 44.2353 56.1094 44.018 56.2724 43.8278C57.4136 42.442 58.7178 41.2193 60.2666 40.3498C61.2991 39.7792 62.3317 39.3716 63.3642 39.1271C65.1847 38.7195 66.8421 38.5021 68.2822 38.5021C69.5321 38.5021 70.5647 38.5837 71.407 38.7467C72.0863 38.8825 72.5482 38.9912 72.8199 39.0727L72.0319 30.5137C68.3909 30.4865 64.8586 31.6277 61.4078 33.9373Z" fill="white"/>
<path d="M81.0801 139.662C81.6779 138.602 82.5202 137.76 83.5527 137.189C84.6124 136.592 85.7808 136.293 87.085 136.293C88.6067 136.293 89.9381 136.673 91.1064 137.461C92.2476 138.249 93.0628 139.336 93.5247 140.695H90.3728C90.0467 140.042 89.612 139.553 89.0414 139.227C88.4708 138.901 87.8187 138.738 87.085 138.738C86.2971 138.738 85.5906 138.928 84.9657 139.309C84.3407 139.689 83.8516 140.205 83.5256 140.885C83.1723 141.564 83.0093 142.352 83.0093 143.276C83.0093 144.173 83.1723 144.961 83.5256 145.64C83.8788 146.319 84.3407 146.863 84.9657 147.216C85.5906 147.596 86.2971 147.786 87.085 147.786C87.8187 147.786 88.4708 147.623 89.0414 147.297C89.612 146.971 90.0467 146.482 90.3728 145.83H93.5247C93.0628 147.216 92.2748 148.303 91.1336 149.091C89.9924 149.879 88.661 150.259 87.1122 150.259C85.808 150.259 84.6396 149.96 83.5799 149.362C82.5202 148.765 81.7051 147.949 81.1073 146.89C80.5095 145.83 80.2106 144.634 80.2106 143.303C80.1563 141.917 80.4552 140.722 81.0801 139.662Z" fill="#A8B7EB"/>
<path d="M114.202 136.456V150.096H111.458V144.281H105.616V150.096H102.872V136.456H105.616V142.08H111.458V136.456H114.202Z" fill="#A8B7EB"/>
<path d="M126.756 149.362C125.696 148.765 124.826 147.922 124.201 146.863C123.577 145.803 123.25 144.607 123.25 143.249C123.25 141.917 123.577 140.722 124.201 139.662C124.826 138.602 125.669 137.76 126.756 137.162C127.815 136.565 129.011 136.266 130.288 136.266C131.592 136.266 132.761 136.565 133.82 137.162C134.88 137.76 135.722 138.602 136.347 139.662C136.972 140.722 137.271 141.917 137.271 143.249C137.271 144.58 136.972 145.803 136.347 146.863C135.722 147.922 134.88 148.765 133.82 149.362C132.761 149.96 131.565 150.259 130.288 150.259C129.011 150.259 127.842 149.96 126.756 149.362ZM132.462 147.243C133.087 146.863 133.576 146.346 133.929 145.64C134.282 144.961 134.445 144.145 134.445 143.222C134.445 142.298 134.282 141.51 133.929 140.83C133.576 140.151 133.087 139.608 132.462 139.255C131.837 138.901 131.103 138.711 130.288 138.711C129.473 138.711 128.739 138.901 128.114 139.255C127.489 139.608 127 140.151 126.647 140.83C126.294 141.51 126.131 142.325 126.131 143.222C126.131 144.145 126.294 144.933 126.647 145.64C127 146.319 127.489 146.863 128.114 147.243C128.739 147.623 129.473 147.814 130.288 147.814C131.103 147.814 131.837 147.623 132.462 147.243Z" fill="#A8B7EB"/>
<path d="M149.145 149.362C148.085 148.765 147.216 147.922 146.591 146.863C145.966 145.803 145.64 144.607 145.64 143.249C145.64 141.917 145.966 140.722 146.591 139.662C147.216 138.602 148.058 137.76 149.145 137.162C150.205 136.565 151.4 136.266 152.677 136.266C153.982 136.266 155.15 136.565 156.21 137.162C157.269 137.76 158.112 138.602 158.737 139.662C159.361 140.722 159.66 141.917 159.66 143.249C159.66 144.58 159.361 145.803 158.737 146.863C158.112 147.922 157.269 148.765 156.21 149.362C155.15 149.96 153.954 150.259 152.677 150.259C151.4 150.259 150.232 149.96 149.145 149.362ZM154.851 147.243C155.476 146.863 155.965 146.346 156.318 145.64C156.672 144.961 156.835 144.145 156.835 143.222C156.835 142.298 156.672 141.51 156.318 140.83C155.965 140.151 155.476 139.608 154.851 139.255C154.226 138.901 153.492 138.711 152.677 138.711C151.862 138.711 151.129 138.901 150.504 139.255C149.879 139.608 149.39 140.151 149.036 140.83C148.683 141.51 148.52 142.325 148.52 143.222C148.52 144.145 148.683 144.933 149.036 145.64C149.39 146.319 149.879 146.863 150.504 147.243C151.129 147.623 151.862 147.814 152.677 147.814C153.492 147.814 154.226 147.623 154.851 147.243Z" fill="#A8B7EB"/>
<path d="M170.882 149.77C170.121 149.444 169.524 148.982 169.062 148.357C168.627 147.732 168.382 147.026 168.382 146.183H171.317C171.344 146.754 171.562 147.189 171.915 147.515C172.268 147.841 172.757 148.004 173.382 148.004C174.007 148.004 174.523 147.841 174.876 147.542C175.23 147.243 175.42 146.835 175.42 146.346C175.42 145.939 175.284 145.613 175.04 145.341C174.795 145.069 174.469 144.879 174.116 144.716C173.735 144.553 173.219 144.39 172.567 144.227C171.67 143.955 170.964 143.711 170.393 143.466C169.85 143.222 169.361 142.814 168.953 142.325C168.545 141.809 168.355 141.129 168.355 140.26C168.355 139.445 168.545 138.738 168.953 138.14C169.361 137.543 169.931 137.081 170.665 136.755C171.399 136.429 172.241 136.266 173.165 136.266C174.578 136.266 175.719 136.619 176.588 137.298C177.458 137.977 177.947 138.928 178.056 140.151H175.04C175.012 139.689 174.822 139.282 174.442 138.983C174.061 138.684 173.572 138.521 172.974 138.521C172.431 138.521 172.023 138.657 171.697 138.928C171.371 139.2 171.208 139.608 171.208 140.124C171.208 140.477 171.317 140.803 171.562 141.021C171.806 141.265 172.105 141.455 172.458 141.618C172.811 141.781 173.328 141.944 173.98 142.135C174.876 142.406 175.583 142.651 176.154 142.923C176.724 143.194 177.186 143.575 177.594 144.091C178.001 144.607 178.191 145.287 178.191 146.156C178.191 146.89 178.001 147.569 177.621 148.194C177.24 148.819 176.697 149.308 175.963 149.688C175.23 150.069 174.36 150.259 173.355 150.259C172.485 150.259 171.643 150.096 170.882 149.77Z" fill="#A8B7EB"/>
<path d="M190.419 138.684V142.108H195.011V144.281H190.419V147.895H195.608V150.123H187.701V136.456H195.608V138.684H190.419Z" fill="#A8B7EB"/>
<path d="M235.062 136.456L231.258 150.096H228.024L225.47 140.369L222.78 150.096L219.574 150.123L215.906 136.456H218.84L221.258 147.053L224.03 136.456H227.073L229.682 146.998L232.1 136.456H235.062Z" fill="#A8B7EB"/>
<path d="M246.637 136.456V150.096H243.892V136.456H246.637Z" fill="#A8B7EB"/>
<path d="M258.511 149.77C257.75 149.444 257.152 148.982 256.69 148.357C256.255 147.732 256.011 147.026 256.011 146.183H258.945C258.973 146.754 259.19 147.189 259.543 147.515C259.896 147.841 260.386 148.004 261.01 148.004C261.635 148.004 262.152 147.841 262.505 147.542C262.858 147.243 263.048 146.835 263.048 146.346C263.048 145.939 262.912 145.613 262.668 145.341C262.423 145.069 262.097 144.879 261.744 144.716C261.364 144.553 260.847 144.39 260.195 144.227C259.299 143.955 258.592 143.711 258.022 143.466C257.478 143.222 256.989 142.814 256.581 142.325C256.174 141.809 255.984 141.129 255.984 140.26C255.984 139.445 256.174 138.738 256.581 138.14C256.989 137.543 257.56 137.081 258.293 136.755C259.027 136.429 259.869 136.266 260.793 136.266C262.206 136.266 263.347 136.619 264.217 137.298C265.086 137.977 265.575 138.928 265.684 140.151H262.749C262.722 139.689 262.532 139.282 262.152 138.983C261.771 138.684 261.282 138.521 260.684 138.521C260.141 138.521 259.733 138.657 259.407 138.928C259.081 139.2 258.918 139.608 258.918 140.124C258.918 140.477 259.027 140.803 259.271 141.021C259.516 141.265 259.815 141.455 260.168 141.618C260.521 141.781 261.038 141.944 261.69 142.135C262.586 142.406 263.293 142.651 263.863 142.923C264.434 143.194 264.896 143.575 265.304 144.091C265.711 144.607 265.901 145.287 265.901 146.156C265.901 146.89 265.711 147.569 265.331 148.194C264.95 148.819 264.407 149.308 263.673 149.688C262.94 150.069 262.07 150.259 261.065 150.259C260.114 150.259 259.271 150.096 258.511 149.77Z" fill="#A8B7EB"/>
<path d="M278.047 138.684V142.108H282.639V144.281H278.047V147.895H283.237V150.123H275.303V136.456H283.237V138.684H278.047Z" fill="#A8B7EB"/>
<path d="M295.491 147.949H300.002V150.123H292.774V136.483H295.518V147.949H295.491Z" fill="#A8B7EB"/>
<path d="M319.62 136.456L315 145.341V150.096H312.256V145.368L307.61 136.483H310.707L313.642 142.732L316.549 136.483H319.62V136.456Z" fill="#A8B7EB"/>
</svg>
