<svg width="312" height="329" viewBox="0 0 312 329" fill="none" xmlns="http://www.w3.org/2000/svg">
<g filter="url(#filter0_d_826_72)">
<rect x="24" y="21" width="264" height="264" rx="28" fill="url(#paint0_linear_826_72)"/>
<path opacity="0.6" d="M265 152.501C265 147.194 261.675 142.652 257 140.841V52.5C257 52.3674 256.947 52.2402 256.854 52.1464C256.76 52.0527 256.633 52 256.5 52H56.5C56.3674 52 56.2402 52.0527 56.1465 52.1464C56.0527 52.2402 56 52.3674 56 52.5V140.841C51.325 142.654 48 147.194 48 152.501C48 157.808 51.325 162.348 56 164.159V252.5C56 252.633 56.0527 252.76 56.1465 252.854C56.2402 252.947 56.3674 253 56.5 253H256.5C256.633 253 256.76 252.947 256.854 252.854C256.947 252.76 257 252.633 257 252.5V164.159C261.675 162.348 265 157.808 265 152.501ZM264 152.501C264.001 155.489 262.835 158.36 260.75 160.501H255.5C254.837 160.5 254.202 160.236 253.733 159.767C253.264 159.299 253.001 158.663 253 158.001V154.974C254.278 154.862 255.476 154.307 256.387 153.405C257.205 152.6 257.745 151.557 257.93 150.425C258.115 149.293 257.936 148.131 257.418 147.108L255.988 144.275C255.946 144.192 255.883 144.123 255.804 144.075C255.725 144.026 255.634 144.001 255.542 144.001H249.458C249.366 144.001 249.275 144.026 249.196 144.075C249.117 144.123 249.054 144.192 249.012 144.275L247.582 147.108C247.064 148.131 246.885 149.293 247.07 150.425C247.255 151.557 247.795 152.6 248.613 153.405C249.524 154.307 250.722 154.862 252 154.974V158.001C251.999 158.663 251.736 159.299 251.267 159.767C250.798 160.236 250.163 160.5 249.5 160.501H244.25C242.165 158.36 240.999 155.489 241 152.501C241 146.159 246.159 141.001 252.5 141.001C258.841 141.001 264 146.159 264 152.501ZM57 185.001H60V216.001H57V185.001ZM57.3163 152.695C56.6496 152.039 56.2088 151.188 56.0575 150.265C55.9061 149.341 56.0521 148.394 56.4744 147.559L57.7656 145.001H63.2344L64.5256 147.559C64.9479 148.394 65.0939 149.341 64.9425 150.265C64.7912 151.188 64.3504 152.039 63.6837 152.695C62.8347 153.531 61.6911 153.999 60.4999 153.999C59.3086 153.999 58.1652 153.53 57.3163 152.694V152.695ZM63.5 161.501H67.6462C65.6169 163.121 63.0968 164.003 60.5 164.001C57.9032 164.003 55.3831 163.121 53.3538 161.501H63.5ZM59.945 160.501C60.1595 160.29 60.346 160.053 60.5 159.794C60.654 160.053 60.8405 160.29 61.055 160.501H59.945ZM256 120.001H253V89.0012H256V120.001ZM213.006 248.001C213.069 238.285 216.751 229.406 222.782 222.603C223.315 222.099 223.842 221.59 224.365 221.074L232.012 228.72C227.166 233.738 224.142 240.521 224.012 248.001H213.006ZM170.361 248.001C188.527 245.37 205.177 237.649 218.698 226.251C214.377 232.686 212.05 240.251 212.006 248.001H170.361ZM100.486 248.001C100.401 239.937 97.9178 232.08 93.3513 225.433C107.039 237.276 124.044 245.308 142.639 248L100.486 248.001ZM88.9856 248.001C88.8556 240.521 85.8325 233.738 80.9856 228.72L88.5762 221.13C95.4787 228.386 99.3765 237.987 99.485 248.001H88.9856ZM252 220.013C244.52 220.143 237.737 223.166 232.719 228.013L225.076 220.371C225.511 219.933 225.941 219.49 226.367 219.043C233.473 212.833 242.563 209.365 252 209.263V220.013ZM230 215.01C241.464 201.568 249.331 184.901 252 166.418V208.263C244.169 208.343 236.529 210.687 230 215.01V215.01ZM225.681 218.313C224.401 219.434 223.192 220.634 222.062 221.906C216.777 226.893 210.943 231.264 204.672 234.936L199.172 225.408C211.659 218.066 222.067 207.659 229.409 195.171L238.967 200.689C235.233 207.057 230.775 212.971 225.681 218.313V218.313ZM153.169 236.929C152.205 237.504 151.406 238.32 150.85 239.297C150.295 240.273 150.002 241.377 150 242.5C150.001 243.577 150.269 244.637 150.781 245.584C151.293 246.532 152.032 247.337 152.932 247.928C137.557 247.363 122.549 243.077 109.194 235.438L114.694 225.912C126.443 232.633 139.643 236.413 153.169 236.929V236.929ZM106.946 202.909C110.821 202.178 114.604 201.603 116.218 202.895C117.894 204.238 118.196 208.054 118.343 212.031L117.682 212.321C113.345 214.228 108.86 216.2 106.926 214.655C104.976 213.098 105.909 208.269 106.811 203.599C106.856 203.368 106.901 203.138 106.946 202.909V202.909ZM90.0887 176.333C93.8644 177.361 97.4181 178.508 98.335 180.413C99.245 182.304 97.7787 185.937 96.1662 189.606L95.6625 189.589C90.8894 189.433 85.9531 189.271 84.86 187.005C83.7975 184.799 86.7038 180.887 89.5169 177.104C89.7081 176.846 89.8987 176.589 90.0887 176.333V176.333ZM85.7044 159.639C81.425 157.4 77 155.084 77 152.501C77 149.917 81.425 147.601 85.7044 145.361L86.2044 145.101C89.2081 147.695 92.0037 150.309 92 152.426C91.9956 154.559 89.1081 157.204 86.0513 159.819L85.7044 159.639ZM85.8044 143.44C82.1913 140.347 78.4556 137.148 79.0119 134.716C79.5644 132.303 84.3012 131.054 88.8831 129.848L89.5806 129.663C91.9394 132.868 94.0806 136.042 93.6037 138.137C93.145 140.153 89.8281 142.056 86.3387 143.899L85.8044 143.44ZM89.5169 127.896C86.7044 124.113 83.7956 120.201 84.86 117.995C85.9538 115.729 90.8894 115.567 95.6625 115.411L96.3556 115.388C97.9287 119.005 99.315 122.553 98.41 124.429C97.4838 126.35 93.8231 127.492 89.9806 128.521C89.8269 128.313 89.6719 128.106 89.5169 127.896V127.896ZM96.7369 113.766C94.8044 109.373 92.8056 104.829 94.3975 102.841C95.9063 100.957 100.658 101.882 105.251 102.779L106.089 102.941C106.825 106.844 107.388 110.634 106.066 112.289C104.754 113.931 100.952 114.22 97 114.366L96.7369 113.766ZM106.812 101.401C105.911 96.7306 104.978 91.9006 106.928 90.3444C108.866 88.8 113.347 90.7725 117.684 92.6794L118.518 93.045C118.356 96.9669 118.023 100.691 116.348 102.022C114.649 103.373 110.863 102.826 106.944 102.084C106.901 101.859 106.857 101.631 106.812 101.401ZM114.693 79.0881L109.193 69.5618C122.548 61.9222 137.558 57.6366 152.933 57.0725C152.033 57.6632 151.293 58.4686 150.781 59.4161C150.269 60.3636 150.001 61.4236 150 62.5006C150.002 63.624 150.295 64.7276 150.85 65.704C151.406 66.6805 152.205 67.4962 153.169 68.0718C139.643 68.5875 126.443 72.3671 114.693 79.0881ZM159.831 68.0718C160.795 67.4962 161.594 66.6805 162.15 65.704C162.705 64.7276 162.998 63.624 163 62.5006C162.999 61.4237 162.731 60.3639 162.219 59.4164C161.707 58.469 160.968 57.6636 160.068 57.0725C175.443 57.6374 190.451 61.9235 203.806 69.5631L198.306 79.0888C186.557 72.3673 173.357 68.5875 159.831 68.0718V68.0718ZM156.599 72.9975H156.603C159.098 73.0025 161.374 77.3625 163.576 81.5787C163.684 81.785 163.791 81.9904 163.898 82.195C161.294 85.2144 158.671 88.0006 156.5 88.0006C154.361 88.0006 151.782 85.2944 149.214 82.3256L149.639 81.5206C151.844 77.33 154.125 72.9956 156.599 72.9956V72.9975ZM206.054 102.092C202.179 102.823 198.396 103.398 196.782 102.106C195.106 100.762 194.804 96.9463 194.657 92.9694C194.877 92.8735 195.097 92.7769 195.318 92.6794C199.655 90.7725 204.139 88.8006 206.074 90.345C208.024 91.9019 207.091 96.7313 206.189 101.401C206.144 101.631 206.099 101.861 206.054 102.092V102.092ZM222.911 128.667C219.136 127.64 215.582 126.493 214.665 124.588C213.755 122.696 215.221 119.064 216.834 115.395L217.337 115.411C222.111 115.567 227.047 115.729 228.14 117.996C229.202 120.202 226.296 124.113 223.483 127.896L222.911 128.667ZM227.296 145.361C231.575 147.601 236 149.916 236 152.501C236 155.086 231.575 157.4 227.296 159.639L226.796 159.9C223.792 157.306 220.996 154.693 221 152.575C221.004 150.441 223.892 147.797 226.949 145.181L227.296 145.361ZM227.196 161.56C230.809 164.654 234.544 167.853 233.988 170.284C233.436 172.698 228.699 173.946 224.117 175.153L223.419 175.338C221.061 172.133 218.919 168.958 219.396 166.864C219.855 164.848 223.172 162.944 226.661 161.102L227.196 161.56ZM223.483 177.104C226.296 180.888 229.204 184.799 228.14 187.005C227.046 189.272 222.111 189.433 217.337 189.589L216.644 189.613C215.071 185.995 213.685 182.448 214.59 180.571C215.516 178.651 219.177 177.509 223.019 176.479L223.483 177.104ZM216.263 191.234C218.196 195.628 220.194 200.171 218.603 202.159C217.094 204.043 212.343 203.118 207.749 202.222L206.911 202.059C206.175 198.156 205.612 194.366 206.934 192.711C208.246 191.069 212.048 190.781 216 190.634L216.263 191.234ZM206.188 203.599C207.089 208.27 208.022 213.099 206.072 214.656C204.134 216.201 199.653 214.228 195.316 212.321C195.037 212.199 194.759 212.077 194.482 211.956C194.644 208.034 194.977 204.31 196.652 202.979C198.351 201.628 202.138 202.174 206.056 202.916C206.099 203.143 206.143 203.371 206.188 203.599ZM142.324 214.403C142.311 214.4 142.299 214.394 142.286 214.392C142.273 214.389 142.241 214.385 142.219 214.381C136.156 212.981 130.334 210.692 124.941 207.588L126.441 204.991C135.438 210.166 145.621 212.924 156 212.996V215.996C151.397 215.963 146.811 215.429 142.324 214.403V214.403ZM101.521 184.246L104.119 182.746C109.312 191.695 116.697 199.175 125.579 204.482L124.079 207.079C114.742 201.509 106.978 193.65 101.521 184.246V184.246ZM92.0575 155.124C92.1799 158.186 92.5203 161.236 93.0762 164.249C91.6544 162.866 89.4225 161.601 87.0006 160.319C89.0825 158.531 90.9775 156.799 92.0575 155.124V155.124ZM101.519 120.76L104.116 122.26C98.8737 131.3 96.0785 141.551 96.0063 152.001H93.0063C93.0781 141.024 96.0122 130.256 101.519 120.759V120.76ZM124.327 97.7757L125.827 100.373C117.126 105.516 109.84 112.741 104.625 121.399L102.027 119.899C107.507 110.786 115.171 103.182 124.327 97.775V97.7757ZM156 89.0068V92.0069C145.719 92.0784 135.628 94.786 126.691 99.8706L125.191 97.2725C134.583 91.9241 145.192 89.0779 156 89.0068V89.0068ZM170.676 90.5975C170.689 90.5975 170.701 90.6056 170.714 90.6087C170.727 90.6118 170.748 90.6131 170.765 90.6162C176.646 91.9735 182.301 94.1677 187.558 97.1319L186.058 99.7294C177.183 94.7351 167.184 92.0778 157 92.0069V89.0068C161.603 89.0392 166.189 89.5725 170.676 90.5975V90.5975ZM210.972 119.899L208.374 121.399C203.11 112.657 195.735 105.377 186.926 100.226L188.426 97.6287C197.69 103.044 205.443 110.702 210.972 119.899V119.899ZM220.943 149.877C220.82 146.815 220.48 143.765 219.924 140.752C221.346 142.136 223.577 143.401 225.999 144.682C223.917 146.469 222.023 148.201 220.943 149.877V149.877ZM211.971 183.377L209.374 181.877C214.302 173.046 216.923 163.115 216.994 153.002H219.994C219.923 163.641 217.163 174.089 211.971 183.375V183.377ZM188.673 207.228L187.173 204.63C196.164 199.315 203.64 191.78 208.881 182.746L211.479 184.246C205.973 193.734 198.12 201.648 188.673 207.226V207.228ZM157 215.996V212.996C167.281 212.924 177.372 210.217 186.309 205.133L187.809 207.73C178.417 213.079 167.808 215.925 157 215.996V215.996ZM97.3562 159.003H116V160.503C116 182.666 133.899 200.719 156 200.989V211.996C125.614 211.742 100.587 188.599 97.3562 159.001V159.003ZM156 93.0087V100.308C155.312 101.058 152.299 104.45 149.943 108.542C131.523 111.554 117.247 127.032 116.085 146.004H97.3562C100.587 116.401 125.614 93.2587 156 93.0069V93.0087ZM215.644 146.003H196.915C195.753 127.031 181.477 111.553 163.057 108.541C160.701 104.449 157.683 101.057 157 100.307V93.0087C187.386 93.2587 212.413 116.401 215.644 146.001V146.003ZM157 211.996V200.989C179.101 200.719 197 182.666 197 160.503V159.003H215.644C212.413 188.599 187.386 211.742 157 211.996ZM110.527 158.003L107.09 152.503L110.527 147.003H116.038C116.02 147.503 116 147.999 116 148.503V158.003H110.527ZM109.348 158.003H103.652L106.5 153.446L109.348 158.003ZM106.5 151.558L103.652 147.002H109.348L106.5 151.558ZM133.809 116.199L138.451 124.239C133.052 126.917 128.316 130.762 124.587 135.496L120.191 132.957C120.919 131.258 121.767 129.612 122.727 128.031C125.57 123.368 129.342 119.34 133.809 116.198V116.199ZM141.139 112.111C143.77 111.001 146.513 110.181 149.321 109.667C147.992 112.193 147 114.906 147 117.384C146.997 118.536 147.229 119.676 147.681 120.735C144.085 121.375 141.152 122.399 139.277 123.669L134.633 115.627C136.687 114.253 138.865 113.075 141.139 112.109V112.111ZM156.5 101.246C157.394 102.256 159.763 105.04 161.773 108.354C160.025 108.121 158.264 108.003 156.5 107.999C154.737 108.003 152.976 108.121 151.228 108.353C153.239 105.042 155.606 102.257 156.5 101.246ZM156.5 108.999C158.478 108.999 160.453 109.148 162.409 109.442C163.866 112.043 165 114.873 165 117.38C165.005 118.479 164.767 119.565 164.305 120.562C161.721 120.179 159.112 119.991 156.5 119.999C153.888 119.991 151.279 120.179 148.695 120.562C148.233 119.566 147.996 118.481 148 117.383C148 114.875 149.135 112.045 150.592 109.446C152.547 109.15 154.522 109.001 156.5 109.001V108.999ZM178.367 115.624L173.723 123.668C171.848 122.398 168.915 121.373 165.319 120.73C165.771 119.672 166.003 118.533 166 117.383C166 114.905 165.008 112.192 163.679 109.666C166.487 110.18 169.23 110.999 171.861 112.109C174.135 113.075 176.313 114.252 178.367 115.626V115.624ZM190.273 128.032C191.233 129.613 192.081 131.259 192.809 132.958L188.412 135.497C184.684 130.762 179.948 126.915 174.549 124.237L179.191 116.197C183.658 119.34 187.431 123.369 190.273 128.034V128.032ZM202.473 146.999L205.91 152.499L202.473 157.999H197V148.499C197 147.996 196.98 147.499 196.962 146.999H202.473ZM203.652 146.999H209.348L206.5 151.558L203.652 146.999ZM206.5 153.443L209.348 157.999H203.652L206.5 153.443ZM138.951 183.896C133.706 181.302 129.101 177.58 125.465 172.996L145.709 161.308L149.97 164.808L138.951 183.896ZM149.062 122.987C149.967 124.085 151.102 124.969 152.388 125.576C153.674 126.184 155.078 126.499 156.5 126.501C157.923 126.5 159.327 126.185 160.614 125.577C161.9 124.97 163.036 124.085 163.941 122.987C164.286 122.571 164.595 122.127 164.864 121.659C171.149 122.721 175 124.914 175 127.001C175 127.089 174.993 127.176 174.979 127.263C174.979 127.277 174.973 127.291 174.971 127.305C174.957 127.384 174.938 127.462 174.915 127.539C174.915 127.544 174.911 127.55 174.909 127.556C174.653 128.357 173.851 129.157 172.584 129.888C172.554 129.905 172.526 129.923 172.496 129.939L172.451 129.963C170.116 131.254 166.345 132.282 161.844 132.737C161.81 132.741 161.778 132.748 161.744 132.752C160.109 132.911 158.357 133.002 156.5 133.002C154.643 133.002 152.891 132.913 151.256 132.752C151.222 132.748 151.19 132.741 151.156 132.737C146.656 132.282 142.884 131.254 140.549 129.963L140.504 129.939C140.474 129.923 140.446 129.905 140.416 129.888C139.149 129.157 138.347 128.357 138.091 127.556C138.091 127.55 138.086 127.544 138.085 127.539C138.062 127.462 138.043 127.384 138.029 127.305C138.029 127.291 138.023 127.277 138.021 127.263C138.007 127.176 138 127.089 138 127.001C138 124.914 141.851 122.724 148.136 121.659C148.406 122.127 148.716 122.571 149.062 122.987V122.987ZM149.214 121.493C151.629 121.157 154.065 120.993 156.503 121.001C158.941 120.993 161.377 121.157 163.792 121.493C163.604 121.79 163.397 122.076 163.174 122.349C162.363 123.334 161.344 124.127 160.19 124.672C159.036 125.217 157.776 125.5 156.5 125.501C155.224 125.5 153.965 125.217 152.812 124.672C151.658 124.127 150.64 123.334 149.829 122.349C149.606 122.077 149.4 121.792 149.211 121.496L149.214 121.493ZM163.033 164.81L167.294 161.31L187.538 172.998C183.903 177.582 179.297 181.305 174.052 183.898L163.033 164.81ZM150.733 164.14L148.751 162.511C151.216 163.496 153.846 164.001 156.501 164.001C159.155 164.001 161.786 163.496 164.251 162.511L162.268 164.14C161.056 165.132 160.214 166.504 159.878 168.034C159.541 169.563 159.731 171.162 160.415 172.571L162.312 176.496C160.393 176.163 158.448 175.998 156.5 176.003C154.552 175.998 152.607 176.163 150.688 176.496L152.582 172.574C153.267 171.165 153.457 169.566 153.121 168.035C152.785 166.505 151.943 165.132 150.73 164.14H150.733ZM155.259 133.986C155.36 133.986 155.459 133.991 155.561 133.992C155.873 133.998 156.187 134.001 156.503 134.001C156.819 134.001 157.133 133.998 157.446 133.992C157.547 133.992 157.646 133.988 157.747 133.986C157.959 133.981 158.171 133.976 158.381 133.969L158.676 133.958C157.71 134.667 156.958 135.63 156.503 136.739C156.048 135.63 155.296 134.667 154.33 133.958L154.625 133.969C154.832 133.976 155.044 133.981 155.256 133.986H155.259ZM158.815 145.701C158.944 145.884 159.074 146.076 159.204 146.269C159.246 146.331 159.289 146.394 159.329 146.461C159.42 146.599 159.511 146.742 159.601 146.885C159.658 146.974 159.714 147.061 159.77 147.151C159.868 147.31 159.964 147.472 160.059 147.634C160.161 147.808 160.26 147.984 160.358 148.161C160.403 148.244 160.449 148.326 160.493 148.411C160.57 148.555 160.644 148.701 160.718 148.849C160.759 148.93 160.799 149.012 160.839 149.094C160.91 149.241 160.981 149.389 161.048 149.538C161.084 149.619 161.117 149.7 161.152 149.781C161.255 150.021 161.351 150.262 161.438 150.503C161.482 150.623 161.528 150.744 161.567 150.865C161.603 150.976 161.634 151.085 161.666 151.195C161.704 151.328 161.742 151.46 161.774 151.592C161.799 151.693 161.822 151.793 161.842 151.893C161.874 152.043 161.9 152.192 161.922 152.34C161.934 152.421 161.948 152.503 161.958 152.584C161.984 152.809 161.999 153.035 162.001 153.261C162.001 154.442 161.603 155.519 160.82 156.465C160.295 157.103 159.636 157.616 158.889 157.969C158.142 158.322 157.327 158.505 156.501 158.506C155.675 158.505 154.859 158.322 154.112 157.969C153.366 157.616 152.706 157.103 152.181 156.465C151.398 155.519 151.001 154.442 151.001 153.261C151.002 153.035 151.017 152.808 151.044 152.583C151.053 152.504 151.067 152.424 151.079 152.343C151.101 152.193 151.128 152.042 151.159 151.889C151.18 151.793 151.201 151.696 151.226 151.599C151.259 151.46 151.299 151.321 151.34 151.181C151.37 151.079 151.398 150.976 151.431 150.874C151.482 150.719 151.539 150.561 151.598 150.408C151.665 150.226 151.738 150.045 151.814 149.864C151.863 149.749 151.911 149.634 151.962 149.519C152.02 149.394 152.081 149.264 152.142 149.138C152.194 149.028 152.248 148.919 152.303 148.811C152.364 148.689 152.427 148.567 152.491 148.447C152.558 148.322 152.627 148.197 152.697 148.072C152.752 147.974 152.805 147.876 152.861 147.779C152.986 147.559 153.119 147.341 153.251 147.126C153.278 147.083 153.306 147.041 153.333 147.001C153.458 146.804 153.583 146.61 153.708 146.421L153.762 146.337C154.6 145.089 155.515 143.895 156.502 142.761C157.318 143.698 158.086 144.677 158.802 145.694L158.815 145.701ZM137.69 128.881C137.711 128.91 137.736 128.938 137.758 128.966C137.781 128.994 137.799 129.017 137.821 129.043C137.842 129.069 137.865 129.099 137.889 129.127C137.921 129.164 137.956 129.201 137.989 129.238L138.067 129.321C138.125 129.384 138.185 129.446 138.248 129.504L138.337 129.589C138.388 129.635 138.438 129.681 138.49 129.728L138.553 129.781C138.581 129.806 138.611 129.83 138.641 129.854C138.708 129.909 138.775 129.963 138.845 130.018L138.851 130.023C138.894 130.055 138.938 130.085 138.982 130.12C139.045 130.168 139.114 130.216 139.182 130.264L139.283 130.333L139.389 130.404C139.441 130.437 139.492 130.471 139.545 130.505L139.718 130.612L139.824 130.674L139.933 130.737C140.012 130.783 140.092 130.828 140.174 130.872C140.231 130.904 140.288 130.934 140.347 130.966C140.439 131.016 140.534 131.064 140.631 131.112L140.786 131.189L140.809 131.201L140.834 131.214C140.924 131.257 141.018 131.299 141.111 131.342L141.251 131.405C141.37 131.458 141.492 131.511 141.615 131.562L141.74 131.616C141.819 131.649 141.898 131.679 141.979 131.713C142.011 131.726 142.041 131.738 142.076 131.751L142.133 131.773L142.258 131.822C142.366 131.863 142.477 131.904 142.589 131.947L142.699 131.986L142.802 132.023C142.936 132.07 143.073 132.116 143.21 132.161C143.264 132.179 143.318 132.198 143.374 132.216C143.502 132.258 143.634 132.298 143.767 132.341C143.834 132.361 143.901 132.383 143.97 132.403L144.012 132.416L144.034 132.423C144.131 132.451 144.231 132.479 144.331 132.507C144.419 132.532 144.506 132.557 144.596 132.581L144.73 132.618L144.914 132.666C145.025 132.694 145.136 132.724 145.249 132.752L145.413 132.792L145.636 132.846L145.928 132.914L146.061 132.943L146.148 132.963C146.224 132.979 146.299 132.997 146.376 133.013C146.453 133.029 146.543 133.048 146.626 133.066L146.664 133.073C147.072 133.156 147.489 133.235 147.914 133.309C147.996 133.324 148.079 133.337 148.161 133.351C148.349 133.381 148.532 133.413 148.72 133.44L149.014 133.483C149.193 133.509 149.374 133.534 149.556 133.558L149.857 133.598C150.051 133.623 150.246 133.645 150.443 133.668L150.709 133.698C150.829 133.711 150.951 133.723 151.073 133.735C153.886 134.028 156.001 136.402 156.001 139.266C155.994 140.811 155.483 142.312 154.544 143.539C153.717 144.589 152.706 145.989 151.846 147.526C151.808 147.592 151.773 147.659 151.736 147.726C151.674 147.834 151.619 147.942 151.561 148.051C151.51 148.148 151.46 148.245 151.41 148.344C151.373 148.419 151.336 148.493 151.299 148.569C151.107 148.961 150.931 149.356 150.774 149.753C150.749 149.812 150.726 149.872 150.703 149.931C150.658 150.05 150.614 150.169 150.572 150.288C150.547 150.358 150.525 150.428 150.502 150.498C150.464 150.612 150.426 150.726 150.392 150.84C150.347 150.989 150.307 151.138 150.267 151.286C150.242 151.384 150.221 151.482 150.199 151.579C150.174 151.692 150.15 151.804 150.129 151.917C150.116 151.994 150.103 152.071 150.091 152.148C150.072 152.271 150.057 152.393 150.044 152.515C150.037 152.578 150.029 152.64 150.024 152.703C150.009 152.89 149.999 153.072 149.999 153.254C149.999 154.674 150.473 155.966 151.409 157.096C152.028 157.847 152.805 158.452 153.685 158.867C154.565 159.282 155.526 159.498 156.499 159.499C157.472 159.498 158.433 159.282 159.312 158.867C160.192 158.452 160.969 157.847 161.588 157.096C162.526 155.966 162.999 154.674 162.999 153.254C162.999 153.072 162.989 152.888 162.974 152.703C162.969 152.64 162.961 152.578 162.954 152.515C162.94 152.393 162.925 152.271 162.906 152.148C162.894 152.071 162.882 151.994 162.868 151.917C162.847 151.804 162.824 151.692 162.799 151.579C162.777 151.482 162.756 151.384 162.731 151.286C162.693 151.138 162.653 150.989 162.606 150.84C162.572 150.726 162.534 150.612 162.496 150.498C162.472 150.428 162.45 150.358 162.426 150.288C162.384 150.169 162.34 150.05 162.294 149.931C162.272 149.872 162.248 149.812 162.224 149.753C162.066 149.356 161.891 148.961 161.698 148.569C161.662 148.493 161.625 148.419 161.587 148.344C161.538 148.245 161.488 148.148 161.436 148.051C161.379 147.942 161.321 147.834 161.261 147.726C161.225 147.659 161.189 147.592 161.152 147.526C160.292 145.989 159.281 144.588 158.454 143.539C157.515 142.312 157.003 140.811 156.996 139.266C156.996 136.402 159.114 134.028 161.924 133.735C162.049 133.723 162.168 133.711 162.289 133.698L162.554 133.668C162.751 133.645 162.947 133.623 163.141 133.598L163.442 133.558C163.624 133.534 163.804 133.509 163.983 133.483L164.277 133.44C164.465 133.411 164.653 133.381 164.836 133.351C164.918 133.337 165.002 133.324 165.086 133.309C165.512 133.236 165.929 133.157 166.336 133.073L166.374 133.066C166.458 133.048 166.542 133.031 166.624 133.013C166.706 132.995 166.776 132.979 166.852 132.963L166.939 132.943L167.072 132.914L167.364 132.846L167.587 132.792L167.751 132.752C167.864 132.724 167.975 132.694 168.086 132.666L168.27 132.618L168.404 132.581C168.494 132.557 168.581 132.532 168.669 132.507C168.769 132.479 168.869 132.451 168.966 132.423L168.988 132.416L169.03 132.403C169.099 132.383 169.166 132.362 169.233 132.341C169.366 132.3 169.498 132.259 169.626 132.216C169.682 132.198 169.736 132.179 169.79 132.161C169.927 132.116 170.064 132.07 170.198 132.023L170.301 131.986L170.411 131.947C170.523 131.906 170.634 131.866 170.742 131.822L170.867 131.773L170.924 131.751C170.956 131.738 170.989 131.726 171.021 131.713C171.102 131.681 171.181 131.65 171.26 131.616L171.385 131.562C171.51 131.511 171.63 131.458 171.749 131.405L171.889 131.342C171.982 131.299 172.077 131.257 172.166 131.214L172.191 131.201L172.214 131.189L172.369 131.112C172.465 131.064 172.561 131.016 172.653 130.966C172.712 130.935 172.769 130.904 172.826 130.872C172.909 130.828 172.989 130.783 173.067 130.737L173.176 130.674L173.282 130.612L173.455 130.505C173.508 130.471 173.559 130.437 173.611 130.404L173.717 130.333L173.818 130.264C173.886 130.216 173.953 130.168 174.018 130.12C174.062 130.088 174.106 130.058 174.149 130.022L174.155 130.018C174.225 129.963 174.292 129.909 174.359 129.854C174.389 129.83 174.419 129.806 174.447 129.781C174.476 129.757 174.49 129.746 174.51 129.727C174.563 129.681 174.613 129.635 174.663 129.589L174.752 129.504C174.814 129.442 174.877 129.379 174.933 129.321L175.011 129.238C175.044 129.201 175.079 129.164 175.111 129.127C175.135 129.099 175.157 129.071 175.179 129.043C175.202 129.016 175.222 128.991 175.242 128.966C175.262 128.94 175.289 128.91 175.31 128.881C175.747 131.631 176.497 137.198 176.497 143.001C176.497 154.028 167.526 163.001 156.497 163.001C145.469 163.001 136.497 154.028 136.497 143.001C136.5 137.198 137.25 131.633 137.688 128.881H137.69ZM156.503 177C158.642 176.996 160.776 177.212 162.871 177.646L165.846 183.804V183.808C165.946 184.025 165.999 184.261 166.001 184.5C166.001 186.432 162.183 188.5 156.501 188.5C150.818 188.5 147.001 186.432 147.001 184.5C147.002 184.259 147.056 184.022 147.158 183.804L150.133 177.646C152.227 177.212 154.361 176.996 156.5 177H156.503ZM157.003 189.489C162.648 189.368 167.003 187.224 167.003 184.5C167.001 184.111 166.915 183.727 166.749 183.375C166.746 183.367 166.742 183.359 166.738 183.351L164.123 177.938C169.069 179.231 172.503 181.718 172.503 184.501C172.503 188.488 165.454 191.866 157.003 191.994V189.489ZM163.543 176.739L161.319 172.136C160.798 171.062 160.612 169.856 160.783 168.675C160.955 167.494 161.477 166.392 162.283 165.511L170.375 179.532C168.652 178.319 166.302 177.352 163.541 176.739H163.543ZM168.119 160.629L169.471 159.518L169.462 159.506C174.352 155.658 177.503 149.694 177.503 143.001V142.953L188.152 136.805C192.046 141.999 194.588 148.08 195.549 154.501C194.587 160.921 192.045 167.002 188.15 172.196L168.119 160.629ZM177.494 141.805C177.366 134.212 176.078 127.333 176 126.927C175.991 126.626 175.932 126.328 175.827 126.046C180.346 128.567 184.325 131.951 187.54 136.005L177.494 141.805ZM137.01 126.927C136.932 127.333 135.644 134.212 135.516 141.805L125.47 136.004C128.684 131.95 132.664 128.566 137.182 126.046C137.076 126.328 137.016 126.625 137.005 126.927H137.01ZM135.5 142.953V143.001C135.5 149.692 138.65 155.658 143.541 159.506L143.531 159.518L144.884 160.629L124.851 172.196C120.956 167.001 118.414 160.92 117.453 154.5C118.414 148.08 120.956 141.999 124.85 136.804L135.5 142.953ZM150.72 165.512C151.525 166.393 152.047 167.495 152.219 168.676C152.391 169.858 152.204 171.063 151.683 172.137L149.459 176.74C146.698 177.353 144.348 178.32 142.625 179.534L150.72 165.512ZM148.879 177.939L146.247 183.386C146.086 183.735 146 184.115 145.997 184.5C145.997 187.224 150.352 189.368 155.997 189.489V191.996C147.546 191.867 140.497 188.489 140.497 184.502C140.5 181.718 143.933 179.232 148.879 177.939V177.939ZM157 192.996C166.018 192.871 173.072 189.398 173.48 184.912L178.367 193.376C172.036 197.605 164.613 199.902 157 199.988V192.996ZM179.191 192.804L174.549 184.764C180.079 182.007 184.771 178.139 188.413 173.504L192.809 176.042C189.905 182.779 185.191 188.58 179.191 192.803V192.804ZM193.191 175.107L189.025 172.701C192.314 168.289 194.659 163.247 195.914 157.889C195.971 158.754 196.002 159.626 196.002 160.503C196.002 165.505 195.047 170.462 193.188 175.106L193.191 175.107ZM195.914 151.116C194.658 145.758 192.313 140.716 189.024 136.304L193.191 133.898C194.056 136.052 194.728 138.279 195.198 140.553C195.733 143.168 196.002 145.831 196 148.501C196 149.378 195.969 150.249 195.913 151.115L195.914 151.116ZM119.812 133.895L123.979 136.301C120.69 140.713 118.345 145.755 117.089 151.113C117.033 150.248 117.002 149.376 117.002 148.499C117.001 145.829 117.27 143.165 117.806 140.548C118.276 138.275 118.948 136.049 119.812 133.895V133.895ZM117.089 157.886C118.345 163.244 120.691 168.286 123.979 172.698L119.812 175.104C117.953 170.459 116.999 165.502 117 160.499C117 159.621 117.031 158.751 117.087 157.886H117.089ZM124.589 173.502C128.318 178.237 133.053 182.084 138.452 184.763L133.81 192.803C127.81 188.58 123.096 182.778 120.192 176.041L124.589 173.502ZM139.521 184.911C139.927 189.396 146.981 192.871 156 192.996V199.989C148.387 199.903 140.963 197.606 134.633 193.376L139.521 184.911ZM216 152.501C216 154.355 215.91 156.188 215.743 158.001H210.527L207.09 152.501L210.527 147.001H215.743C215.91 148.812 216 150.646 216 152.501ZM97 152.501C97 150.646 97.09 148.813 97.2569 147.001H102.473L105.91 152.501L102.473 158.001H97.2569C97.09 156.189 97 154.355 97 152.501ZM219.994 152.001H216.994C216.921 141.551 214.126 131.3 208.884 122.259L211.481 120.759C216.988 130.256 219.922 141.024 219.994 152.001V152.001ZM208.527 114.424C210.419 115.074 212.997 115.252 215.759 115.357C214.657 117.879 213.693 120.268 213.446 122.241C211.996 119.521 210.352 116.909 208.527 114.424V114.424ZM93.0063 153.001H96.0063C96.0772 163.113 98.6983 173.045 103.627 181.876L101.029 183.376C95.8365 174.089 93.0768 163.64 93.0063 153.001V153.001ZM104.473 190.576C102.581 189.927 100.003 189.749 97.2413 189.644C98.3431 187.122 99.3075 184.733 99.5538 182.759C101.005 185.479 102.648 188.091 104.473 190.576V190.576ZM168.117 215.951C166.766 217.314 165.531 219.421 164.289 221.731C162.566 219.749 160.892 217.97 159.261 216.938C162.232 216.814 165.191 216.483 168.117 215.95V215.951ZM170.784 215.417C172.846 214.95 176.058 217.174 179.279 219.563C179.239 219.714 179.199 219.865 179.159 220.018C177.936 224.66 176.671 229.461 174.188 230.025C171.834 230.559 168.692 226.879 165.654 223.318L164.99 222.542C166.831 219.092 168.737 215.879 170.784 215.416V215.417ZM173.378 214.757C176.338 213.953 179.237 212.938 182.052 211.719C181.01 213.413 180.269 215.872 179.556 218.523C177.351 216.894 175.245 215.433 173.375 214.756L173.378 214.757ZM184.487 210.632C186.376 209.72 189.869 211.048 193.457 212.601C193.444 212.939 193.432 213.279 193.421 213.621C193.259 218.299 193.091 223.137 190.916 224.184C188.622 225.288 184.644 222.318 180.797 219.446L180.422 219.165C181.452 215.289 182.582 211.549 184.487 210.631V210.632ZM186.876 209.386C189.514 207.971 192.051 206.375 194.468 204.608C193.822 206.436 193.617 208.886 193.5 211.531C191.078 210.488 188.789 209.605 186.875 209.385L186.876 209.386ZM198.728 201.218C201.033 199.217 203.195 197.056 205.197 194.751C204.984 196.706 205.36 199.201 205.856 201.862C203.187 201.363 200.694 200.996 198.728 201.217V201.218ZM208.527 190.578C210.315 188.143 211.929 185.586 213.359 182.926C213.591 184.86 214.506 187.189 215.571 189.653C212.88 189.757 210.375 189.941 208.527 190.577V190.578ZM215.696 178.103C216.907 175.313 217.918 172.441 218.721 169.507C219.378 171.363 220.789 173.441 222.382 175.616C219.774 176.321 217.367 177.063 215.696 178.102V178.103ZM219.924 164.253C220.471 161.292 220.81 158.297 220.938 155.289C221.991 156.939 223.823 158.642 225.85 160.401C223.484 161.655 221.316 162.896 219.924 164.251V164.253ZM227.2 143.656L226.817 143.982C223.271 142.114 219.862 140.184 219.396 138.138C218.927 136.076 220.995 132.966 223.311 129.812C223.618 129.895 223.927 129.977 224.238 130.059C228.794 131.269 233.506 132.519 234.046 134.909C234.601 137.362 230.839 140.558 227.2 143.654V143.656ZM218.721 135.496C217.934 132.622 216.949 129.806 215.77 127.069C217.403 128.093 219.738 128.833 222.277 129.531C220.728 131.653 219.363 133.683 218.721 135.496ZM216.192 114.371C212.171 114.226 208.266 113.955 206.934 112.287C205.613 110.633 206.174 106.846 206.91 102.946L207.461 102.841C212.204 101.929 217.108 100.986 218.717 103.009C220.327 105.033 218.305 109.598 216.349 114.014C216.297 114.135 216.245 114.253 216.192 114.371ZM205.197 110.249C203.205 107.957 201.056 105.807 198.764 103.815C200.706 104.022 203.202 103.64 205.854 103.146C205.36 105.808 204.984 108.298 205.197 110.251V110.249ZM194.628 100.509C192.795 99.1598 190.891 97.908 188.926 96.7594L188.933 96.7468L188.067 96.2468L188.058 96.2625C187.666 96.0416 187.272 95.8248 186.877 95.6119C188.834 95.3869 191.184 94.4681 193.671 93.395C193.779 96.1206 193.972 98.6438 194.628 100.511V100.509ZM184.488 94.3706C182.613 93.4656 181.487 89.8262 180.467 86.0162L181.024 85.6031C184.856 82.7537 188.819 79.8068 191.086 80.9C193.293 81.9625 193.452 86.8375 193.606 91.5475C193.614 91.8083 193.623 92.0679 193.631 92.3262C189.983 93.9106 186.407 95.2962 184.488 94.3706ZM182.05 93.2838C179.294 92.0899 176.458 91.0914 173.562 90.2956C175.393 89.6337 177.449 88.2331 179.602 86.6538C180.301 89.2381 181.033 91.6262 182.053 93.2831L182.05 93.2838ZM170.979 89.6406C170.953 89.635 170.927 89.63 170.901 89.6237C168.849 89.1237 166.941 85.8262 165.098 82.3325L165.651 81.6843C168.69 78.1218 171.834 74.4425 174.186 74.9775C176.669 75.54 177.936 80.3419 179.156 84.9844C179.212 85.1956 179.268 85.4062 179.323 85.6162C176.163 87.945 173.028 90.07 170.981 89.64L170.979 89.6406ZM168.268 89.0781C165.292 88.5284 162.282 88.1886 159.259 88.0612C160.924 87.0081 162.634 85.1762 164.396 83.1437C165.656 85.5137 166.902 87.6831 168.27 89.08L168.268 89.0781ZM153.736 88.0612C150.765 88.1859 147.806 88.5158 144.881 89.0487C146.232 87.685 147.466 85.5794 148.708 83.2687C150.438 85.2525 152.108 87.0319 153.739 88.0631L153.736 88.0612ZM142.214 89.5831C140.151 90.0494 136.939 87.8263 133.719 85.4375L133.839 84.9825C135.062 80.34 136.326 75.5394 138.809 74.975C141.161 74.44 144.305 78.1219 147.344 81.6819C147.566 81.9419 147.787 82.2006 148.008 82.4581C146.169 85.9088 144.263 89.1206 142.216 89.585L142.214 89.5831ZM139.625 90.2456C136.664 91.0491 133.766 92.0644 130.951 93.2838C131.992 91.59 132.734 89.1306 133.447 86.4794C135.649 88.1069 137.755 89.5669 139.625 90.2456ZM128.516 94.3706C126.626 95.2825 123.133 93.9544 119.546 92.4013C119.558 92.0625 119.57 91.7231 119.582 91.3806C119.744 86.7031 119.911 81.8656 122.086 80.8181C124.379 79.7138 128.359 82.6837 132.206 85.5556L132.581 85.8369C131.548 89.7119 130.418 93.4506 128.513 94.3706H128.516ZM126.126 95.6162C123.488 97.0311 120.951 98.6277 118.534 100.394C119.181 98.5669 119.386 96.1163 119.503 93.4719C121.923 94.5119 124.211 95.3956 126.125 95.6156L126.126 95.6162ZM114.275 103.784C111.97 105.786 109.808 107.947 107.806 110.251C108.019 108.296 107.643 105.801 107.147 103.141C109.813 103.637 112.306 104.007 114.273 103.784L114.275 103.784ZM104.475 114.424C102.688 116.859 101.073 119.416 99.6431 122.076C99.4119 120.143 98.4962 117.813 97.4319 115.35C100.12 115.246 102.625 115.058 104.473 114.424L104.475 114.424ZM97.3069 126.899C96.0955 129.689 95.0846 132.562 94.2819 135.496C93.625 133.639 92.2137 131.561 90.6206 129.386C93.2256 128.679 95.6325 127.938 97.3044 126.899L97.3069 126.899ZM93.0788 140.75C92.5309 143.71 92.1913 146.704 92.0625 149.711C91.0087 148.062 89.1769 146.359 87.15 144.6C89.5156 143.346 91.6875 142.104 93.0762 140.749L93.0788 140.75ZM85.8019 161.347L86.1856 161.021C89.7319 162.888 93.1406 164.818 93.6062 166.864C94.075 168.927 92.0075 172.036 89.6919 175.191C89.3844 175.107 89.0752 175.025 88.7644 174.944C84.2081 173.734 79.4969 172.483 78.9569 170.094C78.3988 167.639 82.1613 164.44 85.7994 161.346L85.8019 161.347ZM94.2819 169.506C95.0672 172.38 96.0523 175.196 97.23 177.933C95.5969 176.909 93.2625 176.17 90.7231 175.472C92.2725 173.348 93.6369 171.32 94.2794 169.506L94.2819 169.506ZM96.8106 190.631C100.831 190.776 104.737 191.047 106.069 192.715C107.389 194.369 106.828 198.153 106.092 202.056L105.541 202.161C100.798 203.073 95.8944 204.015 94.285 201.993C92.6756 199.97 94.6975 195.403 96.6531 190.987C96.7031 190.866 96.755 190.746 96.8081 190.629L96.8106 190.631ZM107.806 194.753C109.797 197.046 111.947 199.197 114.238 201.19C112.297 200.983 109.804 201.365 107.148 201.859C107.64 199.195 108.016 196.703 107.803 194.75L107.806 194.753ZM118.374 204.493C120.839 206.305 123.429 207.941 126.124 209.388C124.167 209.613 121.817 210.531 119.331 211.604C119.221 208.882 119.028 206.356 118.375 204.49L118.374 204.493ZM128.515 210.633C130.39 211.538 131.515 215.178 132.536 218.988L131.979 219.401C128.146 222.25 124.182 225.197 121.916 224.103C119.709 223.041 119.551 218.166 119.397 213.456C119.389 213.196 119.38 212.936 119.371 212.678C123.017 211.091 126.592 209.704 128.512 210.63L128.515 210.633ZM130.952 211.72C133.707 212.913 136.543 213.911 139.438 214.706C137.606 215.367 135.55 216.768 133.396 218.347C132.699 215.763 131.967 213.374 130.947 211.718L130.952 211.72ZM142.024 215.363C142.049 215.369 142.076 215.374 142.101 215.38C144.153 215.88 146.061 219.178 147.905 222.671L147.351 223.319C144.313 226.882 141.169 230.561 138.817 230.026C136.334 229.464 135.067 224.661 133.846 220.019C133.791 219.808 133.735 219.598 133.679 219.388C136.836 217.058 139.968 214.933 142.019 215.361L142.024 215.363ZM144.735 215.926C147.71 216.475 150.721 216.815 153.744 216.942C152.078 217.996 150.369 219.828 148.606 221.86C147.344 219.487 146.098 217.319 144.73 215.921L144.735 215.926ZM156.505 217.005C158.644 217.005 161.223 219.711 163.791 222.68L163.366 223.485C161.161 227.676 158.88 232.008 156.406 232.008H156.402C153.907 232.003 151.631 227.643 149.429 223.427L149.107 222.811C151.706 219.786 154.329 217 156.5 217L156.505 217.005ZM198.312 225.917L203.812 235.443C190.457 243.082 175.448 247.368 160.073 247.933C160.974 247.342 161.713 246.537 162.225 245.589C162.737 244.642 163.005 243.582 163.006 242.505C163.004 241.382 162.711 240.278 162.155 239.302C161.6 238.325 160.801 237.509 159.836 236.934C173.361 236.416 186.56 232.634 198.307 225.912L198.312 225.917ZM157.091 235.996L157.012 232.944C159.79 232.409 161.959 228.293 164.246 223.949L164.486 223.493L164.893 223.969C168.008 227.618 170.963 231.08 173.709 231.08C173.945 231.08 174.18 231.054 174.41 231.002C177.484 230.303 178.767 225.432 180.126 220.274L180.143 220.208L180.199 220.249C184.472 223.439 188.511 226.453 191.35 225.086C194.07 223.778 194.24 218.862 194.42 213.658C194.427 213.45 194.435 213.241 194.442 213.033L194.913 213.24C199.735 215.36 204.288 217.365 206.696 215.441C209.118 213.506 208.171 208.604 207.169 203.413C207.15 203.316 207.132 203.219 207.113 203.122L207.557 203.208C212.669 204.203 217.495 205.146 219.383 202.788C221.354 200.328 219.326 195.716 217.178 190.834C217.144 190.757 217.11 190.679 217.076 190.602L217.37 190.592C222.674 190.419 227.682 190.254 229.041 187.443C230.368 184.693 227.416 180.718 224.286 176.511L224.059 176.206C224.164 176.179 224.268 176.151 224.372 176.123C229.465 174.781 234.276 173.514 234.962 170.511C235.654 167.489 231.862 164.242 227.846 160.804C227.769 160.738 227.691 160.671 227.614 160.605L227.759 160.528C232.237 158.185 236.477 155.966 236.952 153.046L239.994 152.968C239.744 198.596 202.706 235.674 157.091 235.996ZM236.96 152.046C236.555 149.089 232.288 146.848 227.772 144.484L227.849 144.421C231.892 140.984 235.711 137.734 235.022 134.692C234.348 131.712 229.563 130.442 224.496 129.096L223.951 128.951C224.063 128.8 224.175 128.649 224.287 128.498C227.412 124.291 230.369 120.317 229.043 117.566C227.686 114.754 222.676 114.591 217.371 114.418L217.27 114.414C219.439 109.514 221.485 104.887 219.501 102.393C217.518 99.8987 212.541 100.853 207.274 101.865L207.113 101.896C207.133 101.796 207.151 101.696 207.171 101.596C208.171 96.405 209.12 91.5031 206.698 89.5687C204.29 87.6462 199.736 89.6494 194.915 91.7694L194.619 91.8994C194.614 91.7744 194.611 91.6456 194.606 91.5194C194.436 86.28 194.274 81.3319 191.523 80.0037C188.71 78.6475 184.688 81.6388 180.429 84.8044L180.192 84.98C180.171 84.8981 180.149 84.8163 180.129 84.7344C178.771 79.5769 177.488 74.7056 174.414 74.0068C171.473 73.3387 168.278 77.0781 164.897 81.0394L164.603 81.3831L164.466 81.1206C162.15 76.6831 159.954 72.4869 157.096 72.0469L157.017 69.0118C202.642 69.2887 239.708 106.344 239.997 151.969L236.96 152.046ZM199.171 79.5956L204.671 70.0668C218.843 78.3625 230.651 90.1551 238.964 104.317L229.406 109.836C222.065 97.3462 211.658 86.9368 199.171 79.5925V79.5956ZM229.944 89.9275C236.423 94.4368 244.107 96.8971 252 96.99V138.586C249.327 120.069 241.438 103.378 229.944 89.9244V89.9275ZM252 95.99C241.536 95.8556 232.053 91.5312 225.116 84.5944L232.719 76.9912C237.737 81.8368 244.52 84.8606 252 84.9912V95.99ZM252 83.99C244.796 83.8606 238.263 80.9494 233.426 76.2844L252 57.7075V83.99ZM232.719 75.5769C228.053 70.7406 225.142 64.2069 225.012 57.0031H251.293L232.719 75.5769ZM224.012 57.0031C224.142 64.4825 227.166 71.2663 232.012 76.2838L224.421 83.8706C217.519 76.6146 213.621 67.0134 213.512 56.9993L224.012 57.0031ZM212.512 57.0031C212.597 65.067 215.082 72.9229 219.649 79.5693C205.961 67.7275 188.956 59.6944 170.361 57.0031H212.512ZM162 62.5031C161.998 63.9613 161.418 65.3593 160.387 66.3904C159.356 67.4215 157.958 68.0015 156.5 68.0031C155.042 68.0015 153.644 67.4215 152.613 66.3904C151.582 65.3593 151.002 63.9613 151 62.5031C151.002 61.0449 151.582 59.6469 152.613 58.6158C153.644 57.5848 155.042 57.0048 156.5 57.0031C157.958 57.0048 159.355 57.5844 160.386 58.615C161.417 59.6455 161.998 61.0429 162 62.5006V62.5031ZM94.3044 78.7456C98.6226 72.3127 100.949 64.7496 100.992 57.0018H142.636C124.472 59.6312 107.824 67.3506 94.3044 78.7456ZM90.2294 82.3875C89.6919 82.895 89.16 83.4085 88.6337 83.9281L80.9881 76.2825C85.8344 71.265 88.8575 64.4812 88.9881 57.0018H99.9944C99.9312 66.7106 96.2537 75.5844 90.2294 82.3862V82.3875ZM61 84.9875C68.48 84.8581 75.2631 81.8344 80.2812 76.9875L87.9225 84.6287C87.4842 85.0704 87.0504 85.5168 86.6212 85.9681C79.5165 92.1713 70.4312 95.6356 61 95.7375V84.9875ZM80.2812 75.5743L61.7069 57.0006H87.9875C87.8575 64.2044 84.9469 70.7381 80.2812 75.5743ZM79.5744 76.2819C74.7375 80.9469 68.2044 83.8581 61 83.9875V57.7075L79.5744 76.2819ZM61 96.7375C68.8287 96.6578 76.4675 94.3165 82.9962 89.9956C71.5344 103.433 63.6681 120.1 61 138.583V96.7375ZM87.3081 86.6962C88.5964 85.5695 89.8121 84.3625 90.9481 83.0825C96.2308 78.1001 102.061 73.7323 108.327 70.0625L113.827 79.5925C101.34 86.935 90.9323 97.3425 83.59 109.83L74.0312 104.311C77.7626 97.9471 82.2178 92.0361 87.3081 86.6962V86.6962ZM156.013 69.0087L156.092 72.0444C153.272 72.4925 151.069 76.6594 148.754 81.0569L148.514 81.5125L148.107 81.0369C144.726 77.0762 141.532 73.3362 138.59 74.0043C135.516 74.7031 134.233 79.5744 132.874 84.7319C132.868 84.7538 132.862 84.7762 132.857 84.7987L132.801 84.7568C128.528 81.5693 124.489 78.5531 121.65 79.92C118.93 81.2287 118.76 86.1437 118.58 91.3481C118.573 91.5562 118.565 91.765 118.558 91.9731L118.087 91.7662C113.266 89.6462 108.712 87.6413 106.304 89.5656C103.882 91.5031 104.829 96.4025 105.831 101.592C105.85 101.689 105.868 101.787 105.887 101.884L105.443 101.798C100.331 100.802 95.505 99.8606 93.6175 102.219C91.6462 104.679 93.6744 109.29 95.8219 114.172C95.8556 114.249 95.89 114.327 95.9244 114.404L95.63 114.414C90.3256 114.588 85.3175 114.751 83.9594 117.563C82.6319 120.313 85.5844 124.288 88.7144 128.495C88.7894 128.597 88.8648 128.699 88.9406 128.8L88.6281 128.883C83.535 130.225 78.7244 131.493 78.0375 134.495C77.3456 137.517 81.1381 140.764 85.1537 144.203L85.3862 144.401L85.2406 144.478C80.76 146.823 76.5175 149.045 76.0469 151.965L73.0056 152.044C73.2531 106.371 110.347 69.2694 156.013 69.0062V69.0087ZM76.0406 152.963C76.45 155.917 80.7144 158.157 85.2281 160.519L85.1512 160.582C81.1081 164.019 77.2894 167.266 77.9781 170.311C78.6525 173.291 83.4381 174.561 88.505 175.907L89.05 176.052L88.7137 176.505C85.5887 180.712 82.6313 184.685 83.9581 187.437C85.315 190.249 90.325 190.413 95.6294 190.586L95.7306 190.589C93.5612 195.489 91.5156 200.116 93.4994 202.61C95.4831 205.104 100.46 204.151 105.727 203.138L105.887 203.108C105.868 203.208 105.849 203.308 105.83 203.408C104.83 208.595 103.881 213.5 106.303 215.434C108.711 217.357 113.264 215.354 118.086 213.234L118.382 213.104C118.386 213.229 118.39 213.354 118.394 213.484C118.565 218.723 118.727 223.671 121.478 224.999C124.291 226.355 128.313 223.364 132.572 220.199L132.809 220.023C132.83 220.105 132.852 220.187 132.871 220.269C134.23 225.426 135.513 230.298 138.587 230.996C141.529 231.664 144.723 227.924 148.104 223.964L148.398 223.62L148.534 223.883C150.879 228.373 153.101 232.613 156.009 232.966L156.087 235.993C110.414 235.772 73.2963 198.696 73.0038 153.039L76.0406 152.963ZM113.829 225.408L108.329 234.936C94.1567 226.641 82.3491 214.848 74.0356 200.686L83.5938 195.169C90.9356 207.657 101.342 218.065 113.829 225.408V225.408ZM83.0562 215.076C76.5772 210.567 68.8934 208.106 61 208.014V166.418C63.6731 184.933 71.5625 201.621 83.0562 215.076V215.076ZM61 209.014C71.4644 209.148 80.9475 213.472 87.8844 220.409L80.2812 228.013C75.2631 223.166 68.48 220.143 61 220.013V209.014ZM61 221.014C68.2044 221.143 74.7375 224.054 79.5744 228.719L61 247.293V221.014ZM80.2812 229.426C84.9469 234.263 87.8575 240.796 87.9875 248.001H61.7069L80.2812 229.426ZM151 242.5C151.002 241.042 151.582 239.644 152.613 238.613C153.644 237.582 155.042 237.002 156.5 237C157.958 237.002 159.356 237.582 160.387 238.613C161.418 239.644 161.998 241.042 162 242.5C161.998 243.958 161.418 245.356 160.387 246.387C159.356 247.418 157.958 247.998 156.5 248C155.042 247.998 153.644 247.418 152.613 246.387C151.582 245.356 151.002 243.958 151 242.5V242.5ZM232.719 229.426L251.293 248H225.012C225.142 240.796 228.053 234.263 232.719 229.426ZM233.426 228.719C238.263 224.054 244.796 221.143 252 221.013V247.293L233.426 228.719ZM239.468 199.824L229.912 194.307C236.424 182.926 240.179 170.178 240.875 157.084C242.554 161.328 246.489 164.441 251.194 164.932C249.605 177.218 245.621 189.072 239.468 199.824V199.824ZM229.912 110.693L239.468 105.176C245.621 115.928 249.605 127.783 251.194 140.069C246.488 140.559 242.554 143.673 240.874 147.916C240.179 134.822 236.424 122.074 229.912 110.693ZM256 88.0006H253V56.7075L256 53.7075V88.0006ZM252.293 56.0006H60.7069L57.7069 53.0006H255.293L252.293 56.0006ZM60 56.7075V88.0006H57V53.7075L60 56.7075ZM57 89.0006H60V120.001H57V89.0006ZM73.5312 105.176L83.0881 110.693C76.5757 122.074 72.821 134.822 72.125 147.916C70.4456 143.673 66.5113 140.559 61.8056 140.069C63.3949 127.783 67.3787 115.928 73.5312 105.176V105.176ZM83.0881 194.308L73.5319 199.826C67.3789 189.074 63.3952 177.219 61.8062 164.933C66.5119 164.443 70.4463 161.329 72.1256 157.086C72.8212 170.179 76.5758 182.928 83.0881 194.308V194.308ZM57 217H60V248.293L57 251.293V217ZM60.7069 249H92V252H57.7069L60.7069 249ZM93 249H124V252H93V249ZM125 249H188V252H125V249ZM189 249H220V252H189V249ZM221 249H252.293L255.293 252H221V249ZM253 248.293V217H256V251.293L253 248.293ZM256 216H253V185H256V216ZM252.5 164C249.903 164.002 247.383 163.12 245.354 161.5H259.646C257.617 163.12 255.097 164.002 252.5 164.001V164ZM249.316 152.694C248.65 152.038 248.209 151.186 248.057 150.263C247.906 149.34 248.052 148.393 248.474 147.558L249.766 145H255.234L256.526 147.558C256.948 148.393 257.094 149.34 256.943 150.263C256.791 151.186 256.35 152.038 255.684 152.694C254.835 153.529 253.691 153.998 252.5 153.998C251.309 153.998 250.165 153.53 249.316 152.694V152.694ZM251.945 160.5C252.159 160.289 252.346 160.052 252.5 159.793C252.654 160.052 252.841 160.289 253.055 160.5H251.945ZM253 140.013V121H256V140.5C255.024 140.216 254.016 140.052 253 140.013V140.013ZM57 121H60V140.013C58.9838 140.052 57.9762 140.217 57 140.502V121ZM49 152.5C49 146.158 54.1588 141 60.5 141C66.8412 141 72 146.158 72 152.5C72.0012 155.488 70.835 158.359 68.75 160.5H63.5C62.8372 160.499 62.2018 160.236 61.7332 159.767C61.2645 159.298 61.0008 158.663 61 158V154.973C62.2775 154.861 63.4758 154.306 64.3875 153.404C65.2047 152.6 65.745 151.556 65.9302 150.424C66.1155 149.292 65.9362 148.131 65.4181 147.108L63.9881 144.274C63.9464 144.192 63.8826 144.123 63.8038 144.074C63.725 144.026 63.6344 144 63.5419 144H57.4581C57.3656 144 57.275 144.026 57.1962 144.074C57.1174 144.123 57.0536 144.192 57.0119 144.274L55.5819 147.108C55.0638 148.131 54.8845 149.292 55.0698 150.424C55.255 151.556 55.7953 152.6 56.6125 153.404C57.5242 154.306 58.7225 154.861 60 154.973V158C59.9992 158.663 59.7355 159.298 59.2668 159.767C58.7982 160.236 58.1628 160.499 57.5 160.5H52.25C50.1651 158.359 48.9989 155.489 49 152.501V152.5ZM60 164.987V183.999H57V164.499C57.9763 164.784 58.9838 164.948 60 164.988V164.987ZM256 183.999H253V164.987C254.016 164.947 255.024 164.783 256 164.498V183.999Z" fill="url(#paint1_linear_826_72)"/>
<path d="M163.057 108.532C160.474 104.047 157.094 100.396 156.865 100.152C156.817 100.104 156.76 100.066 156.698 100.039C156.635 100.013 156.568 99.9999 156.5 99.9999C156.432 99.9999 156.365 100.013 156.302 100.039C156.24 100.066 156.183 100.104 156.135 100.152C155.906 100.396 152.526 104.047 149.943 108.532C130.719 111.676 116 128.396 116 148.496V160.496C116 182.829 134.168 200.996 156.5 200.996C178.832 200.996 197 182.826 197 160.496V148.496C197 128.396 182.281 111.676 163.057 108.532ZM195.913 151.111C194.657 145.752 192.312 140.709 189.023 136.296L193.189 133.89C195.048 138.535 196.003 143.493 196.002 148.496C196 149.374 195.969 150.245 195.913 151.111ZM148 117.377C148 114.869 149.135 112.038 150.592 109.439C152.547 109.144 154.522 108.996 156.5 108.996C158.478 108.996 160.453 109.144 162.409 109.439C163.866 112.041 165 114.871 165 117.377C165.005 118.476 164.767 119.562 164.305 120.559C161.721 120.176 159.112 119.988 156.5 119.997C153.888 119.988 151.279 120.176 148.695 120.559C148.233 119.562 147.995 118.476 148 117.377V117.377ZM156.5 120.994C158.938 120.987 161.374 121.151 163.789 121.487C163.601 121.785 163.394 122.07 163.171 122.342C162.36 123.327 161.342 124.121 160.188 124.666C159.035 125.211 157.776 125.494 156.5 125.494C155.225 125.494 153.965 125.211 152.812 124.667C151.659 124.122 150.64 123.329 149.829 122.345C149.606 122.073 149.399 121.787 149.211 121.489C151.626 121.153 154.062 120.988 156.5 120.994V120.994ZM149.062 122.981C149.967 124.079 151.102 124.963 152.388 125.57C153.674 126.178 155.078 126.493 156.5 126.494C157.923 126.494 159.327 126.178 160.614 125.571C161.9 124.964 163.036 124.079 163.941 122.981C164.286 122.565 164.595 122.121 164.864 121.652C171.149 122.715 175 124.909 175 126.994C175 127.082 174.993 127.17 174.979 127.257C174.979 127.271 174.973 127.286 174.971 127.299C174.957 127.379 174.939 127.457 174.915 127.534C174.915 127.539 174.911 127.545 174.909 127.551C174.653 128.351 173.851 129.151 172.584 129.882C172.554 129.899 172.526 129.917 172.496 129.934L172.452 129.957C170.117 131.249 166.346 132.277 161.844 132.732C161.81 132.736 161.778 132.743 161.744 132.747C160.109 132.906 158.357 132.997 156.5 132.997C154.643 132.997 152.891 132.907 151.256 132.747C151.222 132.743 151.19 132.736 151.156 132.732C146.656 132.277 142.883 131.249 140.548 129.957L140.504 129.934C140.474 129.917 140.446 129.899 140.416 129.882C139.149 129.151 138.347 128.351 138.091 127.551C138.091 127.545 138.086 127.539 138.085 127.534C138.061 127.457 138.043 127.379 138.029 127.299C138.029 127.286 138.023 127.271 138.021 127.257C138.007 127.17 138 127.082 138 126.994C138 124.909 141.851 122.717 148.136 121.652C148.406 122.121 148.716 122.566 149.062 122.981ZM176 126.919C175.991 126.617 175.932 126.32 175.827 126.037C180.346 128.558 184.325 131.942 187.54 135.997L177.494 141.797C177.361 134.207 176.072 127.327 175.995 126.922L176 126.919ZM150.725 165.506C151.53 166.387 152.052 167.489 152.224 168.67C152.396 169.851 152.209 171.057 151.688 172.131L149.464 176.734C146.702 177.347 144.353 178.314 142.63 179.527L150.725 165.506ZM148.884 177.934L146.253 183.382C146.09 183.731 146.005 184.111 146.003 184.496C146.003 187.219 150.358 189.363 156.003 189.484V191.99C147.551 191.861 140.503 188.482 140.503 184.496C140.5 181.716 143.933 179.23 148.879 177.937L148.884 177.934ZM156.505 188.496C150.823 188.496 147.005 186.428 147.005 184.496C147.007 184.255 147.06 184.018 147.162 183.799L150.137 177.641C152.23 177.209 154.362 176.993 156.5 176.998C158.639 176.994 160.773 177.21 162.868 177.644L165.843 183.802V183.806C165.944 184.023 165.996 184.259 165.998 184.499C166 186.431 162.182 188.499 156.5 188.499L156.505 188.496ZM157.005 189.485C162.65 189.364 167.005 187.219 167.005 184.496C167.003 184.107 166.917 183.723 166.752 183.371C166.748 183.362 166.744 183.354 166.74 183.346L164.126 177.934C169.072 179.227 172.505 181.714 172.505 184.497C172.505 188.484 165.457 191.862 157.005 191.991V189.485ZM163.546 176.735L161.322 172.131C160.801 171.057 160.614 169.852 160.786 168.671C160.958 167.49 161.48 166.387 162.285 165.506L170.375 179.532C168.652 178.317 166.302 177.35 163.541 176.737L163.546 176.735ZM162.275 164.135C161.063 165.127 160.221 166.499 159.885 168.029C159.548 169.559 159.738 171.157 160.422 172.566L162.316 176.489C160.397 176.156 158.452 175.991 156.504 175.996C154.556 175.991 152.611 176.156 150.691 176.489L152.586 172.566C153.27 171.157 153.459 169.559 153.123 168.029C152.787 166.499 151.945 165.127 150.732 164.135L148.75 162.507C151.215 163.492 153.845 163.998 156.5 163.997C159.155 163.998 161.785 163.492 164.25 162.507L162.275 164.135ZM156.505 162.995C145.477 162.995 136.505 154.022 136.505 142.995C136.505 137.192 137.255 131.626 137.693 128.876C137.714 128.904 137.738 128.931 137.761 128.959C137.783 128.987 137.802 129.011 137.823 129.037C137.844 129.062 137.868 129.093 137.891 129.121C137.915 129.149 137.958 129.195 137.991 129.232C138.024 129.269 138.043 129.287 138.069 129.315C138.128 129.377 138.188 129.44 138.251 129.498L138.34 129.582C138.391 129.629 138.44 129.676 138.492 129.721L138.555 129.775C138.583 129.799 138.614 129.823 138.643 129.847C138.709 129.902 138.778 129.957 138.848 130.012L138.854 130.016C138.896 130.049 138.94 130.079 138.984 130.113C139.05 130.162 139.116 130.21 139.185 130.258C139.218 130.281 139.251 130.304 139.285 130.327L139.391 130.398C139.443 130.431 139.494 130.466 139.548 130.499C139.601 130.532 139.663 130.57 139.721 130.606C139.756 130.627 139.791 130.649 139.827 130.668C139.863 130.687 139.899 130.711 139.936 130.731C140.014 130.776 140.095 130.821 140.176 130.866C140.234 130.897 140.291 130.928 140.349 130.959C140.441 131.009 140.537 131.057 140.631 131.104C140.684 131.131 140.736 131.157 140.789 131.183L140.812 131.194C140.821 131.199 140.828 131.203 140.837 131.207C140.926 131.251 141.02 131.292 141.113 131.336L141.254 131.398C141.372 131.451 141.493 131.503 141.615 131.554L141.745 131.609L141.982 131.706L142.08 131.744L142.136 131.766L142.261 131.814C142.369 131.856 142.481 131.897 142.592 131.939L142.702 131.979L142.805 132.016C142.939 132.062 143.076 132.108 143.213 132.154L143.377 132.208C143.502 132.249 143.636 132.29 143.767 132.33L143.975 132.392L144.015 132.404L144.037 132.411C144.133 132.439 144.231 132.467 144.329 132.494C144.428 132.522 144.509 132.546 144.601 132.571L144.733 132.607C144.796 132.622 144.854 132.637 144.914 132.654C145.027 132.683 145.139 132.712 145.254 132.741L145.416 132.781L145.639 132.834L145.931 132.902L146.062 132.931L146.154 132.952L146.378 133.002L146.632 133.054L146.666 133.061C147.074 133.145 147.492 133.224 147.92 133.299L148.163 133.339C148.35 133.369 148.538 133.401 148.725 133.428L149.019 133.472C149.198 133.497 149.379 133.523 149.561 133.547C149.661 133.561 149.761 133.574 149.862 133.586C150.056 133.611 150.251 133.634 150.448 133.656L150.714 133.687L151.078 133.724C153.891 134.017 156.006 136.391 156.006 139.255C155.999 140.8 155.488 142.301 154.549 143.529C153.722 144.578 152.71 145.979 151.851 147.516C151.813 147.581 151.778 147.648 151.742 147.714C151.683 147.822 151.624 147.931 151.566 148.041C151.515 148.138 151.465 148.236 151.415 148.333C151.377 148.408 151.341 148.483 151.304 148.558C151.112 148.951 150.936 149.345 150.778 149.742C150.754 149.802 150.731 149.861 150.708 149.921C150.663 150.04 150.619 150.159 150.577 150.278C150.552 150.348 150.53 150.418 150.507 150.488C150.469 150.602 150.431 150.716 150.397 150.83C150.352 150.979 150.312 151.127 150.272 151.276C150.247 151.374 150.226 151.471 150.204 151.569C150.179 151.682 150.155 151.794 150.134 151.907C150.121 151.984 150.108 152.061 150.096 152.138C150.078 152.261 150.062 152.383 150.049 152.504C150.042 152.567 150.034 152.629 150.029 152.696C150.014 152.883 150.004 153.064 150.004 153.246C150.004 154.666 150.478 155.959 151.414 157.088C152.033 157.839 152.81 158.444 153.69 158.86C154.57 159.275 155.531 159.491 156.504 159.491C157.477 159.491 158.438 159.275 159.318 158.86C160.197 158.444 160.975 157.839 161.593 157.088C162.531 155.959 163.004 154.666 163.004 153.246C163.004 153.064 162.994 152.881 162.979 152.696C162.974 152.633 162.966 152.571 162.959 152.504C162.945 152.382 162.93 152.26 162.911 152.138C162.899 152.061 162.887 151.984 162.873 151.907C162.852 151.794 162.829 151.682 162.804 151.569C162.782 151.471 162.761 151.374 162.736 151.276C162.698 151.127 162.658 150.979 162.611 150.83C162.577 150.716 162.539 150.602 162.501 150.488C162.478 150.418 162.455 150.348 162.43 150.278C162.388 150.159 162.345 150.04 162.299 149.921C162.277 149.859 162.253 149.802 162.229 149.742C162.071 149.346 161.896 148.951 161.703 148.558C161.666 148.483 161.63 148.408 161.592 148.333C161.543 148.236 161.493 148.138 161.441 148.041C161.384 147.931 161.325 147.822 161.266 147.714C161.229 147.648 161.194 147.581 161.157 147.516C160.298 145.979 159.286 144.578 158.459 143.529C157.52 142.301 157.008 140.8 157.001 139.255C157.001 136.391 159.119 134.017 161.929 133.724L162.294 133.687L162.559 133.656C162.756 133.634 162.952 133.611 163.146 133.586C163.247 133.574 163.347 133.561 163.447 133.547C163.629 133.523 163.809 133.498 163.988 133.472L164.283 133.428C164.47 133.399 164.658 133.369 164.845 133.339L165.088 133.299C165.516 133.225 165.934 133.146 166.342 133.061L166.376 133.054L166.63 133.002L166.854 132.952L166.946 132.931L167.077 132.902L167.369 132.834L167.592 132.781L167.754 132.741C167.869 132.712 167.981 132.683 168.094 132.654C168.156 132.637 168.215 132.622 168.275 132.607L168.408 132.571C168.499 132.546 168.589 132.52 168.679 132.494C168.769 132.469 168.875 132.439 168.971 132.411L168.993 132.404L169.033 132.392L169.241 132.33C169.373 132.29 169.503 132.249 169.631 132.208L169.795 132.154C169.932 132.108 170.069 132.062 170.203 132.016L170.306 131.979L170.416 131.939C170.527 131.899 170.639 131.857 170.747 131.814L170.872 131.766L170.928 131.744L171.026 131.706L171.263 131.609L171.393 131.554C171.516 131.503 171.636 131.451 171.754 131.398L171.896 131.336C171.988 131.292 172.083 131.251 172.171 131.207C172.18 131.203 172.187 131.199 172.196 131.194L172.219 131.183C172.272 131.157 172.324 131.131 172.377 131.104C172.472 131.057 172.564 131.009 172.659 130.959C172.718 130.929 172.774 130.897 172.832 130.866C172.913 130.821 172.994 130.776 173.072 130.731C173.109 130.709 173.146 130.689 173.181 130.668C173.217 130.647 173.252 130.626 173.288 130.606C173.346 130.57 173.404 130.535 173.461 130.499C173.518 130.462 173.565 130.431 173.617 130.398L173.723 130.327C173.757 130.304 173.79 130.281 173.823 130.258C173.892 130.21 173.958 130.162 174.024 130.113C174.068 130.081 174.112 130.051 174.155 130.016L174.16 130.012C174.231 129.957 174.299 129.902 174.366 129.847C174.394 129.823 174.424 129.799 174.453 129.776L174.516 129.721C174.569 129.676 174.618 129.629 174.668 129.582L174.758 129.498C174.82 129.436 174.883 129.376 174.939 129.315C174.965 129.287 174.991 129.26 175.017 129.232C175.043 129.204 175.084 129.159 175.117 129.121C175.149 129.084 175.162 129.065 175.185 129.037C175.207 129.009 175.227 128.986 175.247 128.959C175.267 128.933 175.294 128.904 175.316 128.876C175.753 131.626 176.503 137.192 176.503 142.995C176.5 154.024 167.528 162.997 156.5 162.997L156.505 162.995ZM155.261 133.978C155.362 133.978 155.461 133.984 155.562 133.985C155.875 133.99 156.189 133.993 156.505 133.993C156.821 133.994 157.135 133.991 157.447 133.985C157.549 133.985 157.648 133.981 157.749 133.978C157.961 133.974 158.173 133.969 158.383 133.962L158.678 133.951C158.472 134.1 158.276 134.26 158.089 134.432C157.802 134.699 157.54 134.992 157.306 135.307C156.98 135.747 156.711 136.226 156.505 136.732C156.05 135.623 155.298 134.661 154.332 133.952L154.627 133.962C154.832 133.97 155.044 133.976 155.256 133.98L155.261 133.978ZM159.301 146.406C159.426 146.594 159.551 146.786 159.67 146.98C159.698 147.026 159.727 147.069 159.755 147.115C159.888 147.328 160.017 147.546 160.144 147.765C160.201 147.864 160.255 147.964 160.311 148.064C160.379 148.189 160.447 148.309 160.514 148.434C160.58 148.559 160.642 148.678 160.701 148.801C160.756 148.908 160.808 149.016 160.86 149.123C160.923 149.252 160.985 149.38 161.041 149.508C161.092 149.622 161.139 149.735 161.188 149.849C161.265 150.032 161.337 150.215 161.406 150.398C161.464 150.553 161.521 150.711 161.572 150.862C161.605 150.965 161.634 151.067 161.663 151.169C161.704 151.309 161.744 151.449 161.777 151.587C161.802 151.684 161.823 151.781 161.844 151.878C161.876 152.031 161.902 152.182 161.924 152.332C161.936 152.412 161.95 152.492 161.959 152.572C161.986 152.797 162.001 153.023 162.003 153.25C162.003 154.431 161.605 155.509 160.822 156.454C160.297 157.091 159.638 157.605 158.891 157.958C158.144 158.311 157.328 158.494 156.503 158.495C155.677 158.494 154.861 158.311 154.114 157.958C153.367 157.605 152.708 157.091 152.183 156.454C151.4 155.509 151.003 154.431 151.003 153.25C151.004 153.023 151.019 152.797 151.046 152.572C151.055 152.492 151.069 152.412 151.081 152.332C151.103 152.182 151.129 152.031 151.161 151.878C151.182 151.781 151.203 151.684 151.227 151.587C151.261 151.449 151.301 151.309 151.341 151.17C151.372 151.067 151.4 150.965 151.433 150.862C151.484 150.709 151.541 150.554 151.598 150.4C151.667 150.216 151.74 150.032 151.818 149.849C151.866 149.735 151.912 149.622 151.964 149.508C152.022 149.38 152.083 149.252 152.145 149.123C152.197 149.016 152.249 148.908 152.304 148.801C152.365 148.676 152.428 148.554 152.491 148.434C152.558 148.309 152.626 148.184 152.694 148.064C152.75 147.964 152.804 147.864 152.861 147.765C152.986 147.546 153.118 147.327 153.25 147.115C153.278 147.069 153.307 147.026 153.335 146.98C153.457 146.786 153.58 146.594 153.704 146.407C153.723 146.377 153.743 146.348 153.762 146.318C154.6 145.071 155.514 143.877 156.5 142.744C157.486 143.877 158.401 145.071 159.238 146.319L159.301 146.406ZM137.01 126.92C136.932 127.326 135.644 134.205 135.516 141.799L125.47 135.997C128.685 131.943 132.664 128.559 137.182 126.038C137.076 126.321 137.016 126.62 137.005 126.922L137.01 126.92ZM135.5 142.949V142.996C135.5 149.687 138.65 155.654 143.541 159.503L143.531 159.514L144.884 160.626L124.851 172.193C120.956 166.998 118.414 160.917 117.453 154.496C118.414 148.076 120.956 141.995 124.85 136.8L135.5 142.949ZM145.709 161.304L149.97 164.804L138.951 183.891C133.706 181.298 129.1 177.575 125.465 172.991L145.709 161.304ZM139.522 184.909C139.929 189.395 146.983 192.868 156.002 192.993V199.987C148.389 199.901 140.965 197.603 134.635 193.374L139.522 184.909ZM157 192.993C166.018 192.868 173.072 189.395 173.48 184.909L178.367 193.374C172.037 197.603 164.613 199.901 157 199.987V192.993ZM163.03 164.806L167.291 161.306L187.535 172.993C183.9 177.578 179.294 181.3 174.049 183.894L163.03 164.806ZM168.116 160.625L169.469 159.513L169.459 159.502C174.35 155.657 177.5 149.687 177.5 142.996V142.949L188.149 136.8C192.044 141.995 194.586 148.076 195.547 154.497C194.586 160.917 192.044 166.998 188.15 172.193L168.116 160.625ZM192.812 132.954L188.415 135.494C184.687 130.758 179.952 126.911 174.553 124.232L179.194 116.192C185.195 120.415 189.908 126.217 192.812 132.954ZM178.37 115.619L173.726 123.662C171.851 122.392 168.918 121.368 165.322 120.725C165.775 119.666 166.006 118.526 166.003 117.374C166.003 114.896 165.011 112.183 163.682 109.657C168.931 110.625 173.928 112.654 178.367 115.619H178.37ZM156.5 101.24C157.394 102.249 159.763 105.034 161.773 108.348C160.025 108.116 158.264 107.997 156.5 107.993C154.737 107.997 152.976 108.116 151.228 108.348C153.239 105.032 155.606 102.249 156.5 101.24ZM147 117.377C146.997 118.528 147.229 119.668 147.681 120.727C144.085 121.368 141.152 122.392 139.277 123.665L134.633 115.622C139.073 112.657 144.07 110.629 149.321 109.662C147.992 112.186 147 114.899 147 117.377V117.377ZM133.809 116.189L138.451 124.23C133.051 126.909 128.316 130.755 124.587 135.491L120.191 132.952C123.095 126.215 127.809 120.414 133.809 116.192V116.189ZM119.809 133.887L123.975 136.293C120.686 140.705 118.341 145.748 117.086 151.106C117.029 150.24 116.998 149.369 116.998 148.491C116.998 143.489 117.953 138.534 119.812 133.89L119.809 133.887ZM117.086 157.879C118.341 163.238 120.686 168.282 123.976 172.695L119.809 175.101C117.95 170.455 116.995 165.498 116.996 160.494C117 159.619 117.031 158.748 117.087 157.882L117.086 157.879ZM120.189 176.036L124.586 173.497C128.314 178.233 133.05 182.079 138.449 184.758L133.807 192.799C127.808 188.576 123.095 182.775 120.191 176.039L120.189 176.036ZM179.189 192.799L174.547 184.758C179.946 182.08 184.682 178.233 188.41 173.497L192.807 176.036C189.904 182.775 185.191 188.577 179.191 192.801L179.189 192.799ZM193.189 175.101L189.023 172.695C192.311 168.283 194.656 163.24 195.912 157.882C195.968 158.748 195.999 159.619 195.999 160.497C196.001 165.5 195.046 170.458 193.188 175.103L193.189 175.101Z" fill="url(#paint2_linear_826_72)"/>
<g filter="url(#filter1_f_826_72)">
<path d="M163.057 108.532C160.474 104.047 157.094 100.396 156.865 100.152C156.817 100.104 156.76 100.066 156.698 100.039C156.635 100.013 156.568 99.9999 156.5 99.9999C156.432 99.9999 156.365 100.013 156.302 100.039C156.24 100.066 156.183 100.104 156.135 100.152C155.906 100.396 152.526 104.047 149.943 108.532C130.719 111.676 116 128.396 116 148.496V160.496C116 182.829 134.168 200.996 156.5 200.996C178.832 200.996 197 182.826 197 160.496V148.496C197 128.396 182.281 111.676 163.057 108.532ZM195.913 151.111C194.657 145.752 192.312 140.709 189.023 136.296L193.189 133.89C195.048 138.535 196.003 143.493 196.002 148.496C196 149.374 195.969 150.245 195.913 151.111ZM148 117.377C148 114.869 149.135 112.038 150.592 109.439C152.547 109.144 154.522 108.996 156.5 108.996C158.478 108.996 160.453 109.144 162.409 109.439C163.866 112.041 165 114.871 165 117.377C165.005 118.476 164.767 119.562 164.305 120.559C161.721 120.176 159.112 119.988 156.5 119.997C153.888 119.988 151.279 120.176 148.695 120.559C148.233 119.562 147.995 118.476 148 117.377V117.377ZM156.5 120.994C158.938 120.987 161.374 121.151 163.789 121.487C163.601 121.785 163.394 122.07 163.171 122.342C162.36 123.327 161.342 124.121 160.188 124.666C159.035 125.211 157.776 125.494 156.5 125.494C155.225 125.494 153.965 125.211 152.812 124.667C151.659 124.122 150.64 123.329 149.829 122.345C149.606 122.073 149.399 121.787 149.211 121.489C151.626 121.153 154.062 120.988 156.5 120.994V120.994ZM149.062 122.981C149.967 124.079 151.102 124.963 152.388 125.57C153.674 126.178 155.078 126.493 156.5 126.494C157.923 126.494 159.327 126.178 160.614 125.571C161.9 124.964 163.036 124.079 163.941 122.981C164.286 122.565 164.595 122.121 164.864 121.652C171.149 122.715 175 124.909 175 126.994C175 127.082 174.993 127.17 174.979 127.257C174.979 127.271 174.973 127.286 174.971 127.299C174.957 127.379 174.939 127.457 174.915 127.534C174.915 127.539 174.911 127.545 174.909 127.551C174.653 128.351 173.851 129.151 172.584 129.882C172.554 129.899 172.526 129.917 172.496 129.934L172.452 129.957C170.117 131.249 166.346 132.277 161.844 132.732C161.81 132.736 161.778 132.743 161.744 132.747C160.109 132.906 158.357 132.997 156.5 132.997C154.643 132.997 152.891 132.907 151.256 132.747C151.222 132.743 151.19 132.736 151.156 132.732C146.656 132.277 142.883 131.249 140.548 129.957L140.504 129.934C140.474 129.917 140.446 129.899 140.416 129.882C139.149 129.151 138.347 128.351 138.091 127.551C138.091 127.545 138.086 127.539 138.085 127.534C138.061 127.457 138.043 127.379 138.029 127.299C138.029 127.286 138.023 127.271 138.021 127.257C138.007 127.17 138 127.082 138 126.994C138 124.909 141.851 122.717 148.136 121.652C148.406 122.121 148.716 122.566 149.062 122.981ZM176 126.919C175.991 126.617 175.932 126.32 175.827 126.037C180.346 128.558 184.325 131.942 187.54 135.997L177.494 141.797C177.361 134.207 176.072 127.327 175.995 126.922L176 126.919ZM150.725 165.506C151.53 166.387 152.052 167.489 152.224 168.67C152.396 169.851 152.209 171.057 151.688 172.131L149.464 176.734C146.702 177.347 144.353 178.314 142.63 179.527L150.725 165.506ZM148.884 177.934L146.253 183.382C146.09 183.731 146.005 184.111 146.003 184.496C146.003 187.219 150.358 189.363 156.003 189.484V191.99C147.551 191.861 140.503 188.482 140.503 184.496C140.5 181.716 143.933 179.23 148.879 177.937L148.884 177.934ZM156.505 188.496C150.823 188.496 147.005 186.428 147.005 184.496C147.007 184.255 147.06 184.018 147.162 183.799L150.137 177.641C152.23 177.209 154.362 176.993 156.5 176.998C158.639 176.994 160.773 177.21 162.868 177.644L165.843 183.802V183.806C165.944 184.023 165.996 184.259 165.998 184.499C166 186.431 162.182 188.499 156.5 188.499L156.505 188.496ZM157.005 189.485C162.65 189.364 167.005 187.219 167.005 184.496C167.003 184.107 166.917 183.723 166.752 183.371C166.748 183.362 166.744 183.354 166.74 183.346L164.126 177.934C169.072 179.227 172.505 181.714 172.505 184.497C172.505 188.484 165.457 191.862 157.005 191.991V189.485ZM163.546 176.735L161.322 172.131C160.801 171.057 160.614 169.852 160.786 168.671C160.958 167.49 161.48 166.387 162.285 165.506L170.375 179.532C168.652 178.317 166.302 177.35 163.541 176.737L163.546 176.735ZM162.275 164.135C161.063 165.127 160.221 166.499 159.885 168.029C159.548 169.559 159.738 171.157 160.422 172.566L162.316 176.489C160.397 176.156 158.452 175.991 156.504 175.996C154.556 175.991 152.611 176.156 150.691 176.489L152.586 172.566C153.27 171.157 153.459 169.559 153.123 168.029C152.787 166.499 151.945 165.127 150.732 164.135L148.75 162.507C151.215 163.492 153.845 163.998 156.5 163.997C159.155 163.998 161.785 163.492 164.25 162.507L162.275 164.135ZM156.505 162.995C145.477 162.995 136.505 154.022 136.505 142.995C136.505 137.192 137.255 131.626 137.693 128.876C137.714 128.904 137.738 128.931 137.761 128.959C137.783 128.987 137.802 129.011 137.823 129.037C137.844 129.062 137.868 129.093 137.891 129.121C137.915 129.149 137.958 129.195 137.991 129.232C138.024 129.269 138.043 129.287 138.069 129.315C138.128 129.377 138.188 129.44 138.251 129.498L138.34 129.582C138.391 129.629 138.44 129.676 138.492 129.721L138.555 129.775C138.583 129.799 138.614 129.823 138.643 129.847C138.709 129.902 138.778 129.957 138.848 130.012L138.854 130.016C138.896 130.049 138.94 130.079 138.984 130.113C139.05 130.162 139.116 130.21 139.185 130.258C139.218 130.281 139.251 130.304 139.285 130.327L139.391 130.398C139.443 130.431 139.494 130.466 139.548 130.499C139.601 130.532 139.663 130.57 139.721 130.606C139.756 130.627 139.791 130.649 139.827 130.668C139.863 130.687 139.899 130.711 139.936 130.731C140.014 130.776 140.095 130.821 140.176 130.866C140.234 130.897 140.291 130.928 140.349 130.959C140.441 131.009 140.537 131.057 140.631 131.104C140.684 131.131 140.736 131.157 140.789 131.183L140.812 131.194C140.821 131.199 140.828 131.203 140.837 131.207C140.926 131.251 141.02 131.292 141.113 131.336L141.254 131.398C141.372 131.451 141.493 131.503 141.615 131.554L141.745 131.609L141.982 131.706L142.08 131.744L142.136 131.766L142.261 131.814C142.369 131.856 142.481 131.897 142.592 131.939L142.702 131.979L142.805 132.016C142.939 132.062 143.076 132.108 143.213 132.154L143.377 132.208C143.502 132.249 143.636 132.29 143.767 132.33L143.975 132.392L144.015 132.404L144.037 132.411C144.133 132.439 144.231 132.467 144.329 132.494C144.428 132.522 144.509 132.546 144.601 132.571L144.733 132.607C144.796 132.622 144.854 132.637 144.914 132.654C145.027 132.683 145.139 132.712 145.254 132.741L145.416 132.781L145.639 132.834L145.931 132.902L146.062 132.931L146.154 132.952L146.378 133.002L146.632 133.054L146.666 133.061C147.074 133.145 147.492 133.224 147.92 133.299L148.163 133.339C148.35 133.369 148.538 133.401 148.725 133.428L149.019 133.472C149.198 133.497 149.379 133.523 149.561 133.547C149.661 133.561 149.761 133.574 149.862 133.586C150.056 133.611 150.251 133.634 150.448 133.656L150.714 133.687L151.078 133.724C153.891 134.017 156.006 136.391 156.006 139.255C155.999 140.8 155.488 142.301 154.549 143.529C153.722 144.578 152.71 145.979 151.851 147.516C151.813 147.581 151.778 147.648 151.742 147.714C151.683 147.822 151.624 147.931 151.566 148.041C151.515 148.138 151.465 148.236 151.415 148.333C151.377 148.408 151.341 148.483 151.304 148.558C151.112 148.951 150.936 149.345 150.778 149.742C150.754 149.802 150.731 149.861 150.708 149.921C150.663 150.04 150.619 150.159 150.577 150.278C150.552 150.348 150.53 150.418 150.507 150.488C150.469 150.602 150.431 150.716 150.397 150.83C150.352 150.979 150.312 151.127 150.272 151.276C150.247 151.374 150.226 151.471 150.204 151.569C150.179 151.682 150.155 151.794 150.134 151.907C150.121 151.984 150.108 152.061 150.096 152.138C150.078 152.261 150.062 152.383 150.049 152.504C150.042 152.567 150.034 152.629 150.029 152.696C150.014 152.883 150.004 153.064 150.004 153.246C150.004 154.666 150.478 155.959 151.414 157.088C152.033 157.839 152.81 158.444 153.69 158.86C154.57 159.275 155.531 159.491 156.504 159.491C157.477 159.491 158.438 159.275 159.318 158.86C160.197 158.444 160.975 157.839 161.593 157.088C162.531 155.959 163.004 154.666 163.004 153.246C163.004 153.064 162.994 152.881 162.979 152.696C162.974 152.633 162.966 152.571 162.959 152.504C162.945 152.382 162.93 152.26 162.911 152.138C162.899 152.061 162.887 151.984 162.873 151.907C162.852 151.794 162.829 151.682 162.804 151.569C162.782 151.471 162.761 151.374 162.736 151.276C162.698 151.127 162.658 150.979 162.611 150.83C162.577 150.716 162.539 150.602 162.501 150.488C162.478 150.418 162.455 150.348 162.43 150.278C162.388 150.159 162.345 150.04 162.299 149.921C162.277 149.859 162.253 149.802 162.229 149.742C162.071 149.346 161.896 148.951 161.703 148.558C161.666 148.483 161.63 148.408 161.592 148.333C161.543 148.236 161.493 148.138 161.441 148.041C161.384 147.931 161.325 147.822 161.266 147.714C161.229 147.648 161.194 147.581 161.157 147.516C160.298 145.979 159.286 144.578 158.459 143.529C157.52 142.301 157.008 140.8 157.001 139.255C157.001 136.391 159.119 134.017 161.929 133.724L162.294 133.687L162.559 133.656C162.756 133.634 162.952 133.611 163.146 133.586C163.247 133.574 163.347 133.561 163.447 133.547C163.629 133.523 163.809 133.498 163.988 133.472L164.283 133.428C164.47 133.399 164.658 133.369 164.845 133.339L165.088 133.299C165.516 133.225 165.934 133.146 166.342 133.061L166.376 133.054L166.63 133.002L166.854 132.952L166.946 132.931L167.077 132.902L167.369 132.834L167.592 132.781L167.754 132.741C167.869 132.712 167.981 132.683 168.094 132.654C168.156 132.637 168.215 132.622 168.275 132.607L168.408 132.571C168.499 132.546 168.589 132.52 168.679 132.494C168.769 132.469 168.875 132.439 168.971 132.411L168.993 132.404L169.033 132.392L169.241 132.33C169.373 132.29 169.503 132.249 169.631 132.208L169.795 132.154C169.932 132.108 170.069 132.062 170.203 132.016L170.306 131.979L170.416 131.939C170.527 131.899 170.639 131.857 170.747 131.814L170.872 131.766L170.928 131.744L171.026 131.706L171.263 131.609L171.393 131.554C171.516 131.503 171.636 131.451 171.754 131.398L171.896 131.336C171.988 131.292 172.083 131.251 172.171 131.207C172.18 131.203 172.187 131.199 172.196 131.194L172.219 131.183C172.272 131.157 172.324 131.131 172.377 131.104C172.472 131.057 172.564 131.009 172.659 130.959C172.718 130.929 172.774 130.897 172.832 130.866C172.913 130.821 172.994 130.776 173.072 130.731C173.109 130.709 173.146 130.689 173.181 130.668C173.217 130.647 173.252 130.626 173.288 130.606C173.346 130.57 173.404 130.535 173.461 130.499C173.518 130.462 173.565 130.431 173.617 130.398L173.723 130.327C173.757 130.304 173.79 130.281 173.823 130.258C173.892 130.21 173.958 130.162 174.024 130.113C174.068 130.081 174.112 130.051 174.155 130.016L174.16 130.012C174.231 129.957 174.299 129.902 174.366 129.847C174.394 129.823 174.424 129.799 174.453 129.776L174.516 129.721C174.569 129.676 174.618 129.629 174.668 129.582L174.758 129.498C174.82 129.436 174.883 129.376 174.939 129.315C174.965 129.287 174.991 129.26 175.017 129.232C175.043 129.204 175.084 129.159 175.117 129.121C175.149 129.084 175.162 129.065 175.185 129.037C175.207 129.009 175.227 128.986 175.247 128.959C175.267 128.933 175.294 128.904 175.316 128.876C175.753 131.626 176.503 137.192 176.503 142.995C176.5 154.024 167.528 162.997 156.5 162.997L156.505 162.995ZM155.261 133.978C155.362 133.978 155.461 133.984 155.562 133.985C155.875 133.99 156.189 133.993 156.505 133.993C156.821 133.994 157.135 133.991 157.447 133.985C157.549 133.985 157.648 133.981 157.749 133.978C157.961 133.974 158.173 133.969 158.383 133.962L158.678 133.951C158.472 134.1 158.276 134.26 158.089 134.432C157.802 134.699 157.54 134.992 157.306 135.307C156.98 135.747 156.711 136.226 156.505 136.732C156.05 135.623 155.298 134.661 154.332 133.952L154.627 133.962C154.832 133.97 155.044 133.976 155.256 133.98L155.261 133.978ZM159.301 146.406C159.426 146.594 159.551 146.786 159.67 146.98C159.698 147.026 159.727 147.069 159.755 147.115C159.888 147.328 160.017 147.546 160.144 147.765C160.201 147.864 160.255 147.964 160.311 148.064C160.379 148.189 160.447 148.309 160.514 148.434C160.58 148.559 160.642 148.678 160.701 148.801C160.756 148.908 160.808 149.016 160.86 149.123C160.923 149.252 160.985 149.38 161.041 149.508C161.092 149.622 161.139 149.735 161.188 149.849C161.265 150.032 161.337 150.215 161.406 150.398C161.464 150.553 161.521 150.711 161.572 150.862C161.605 150.965 161.634 151.067 161.663 151.169C161.704 151.309 161.744 151.449 161.777 151.587C161.802 151.684 161.823 151.781 161.844 151.878C161.876 152.031 161.902 152.182 161.924 152.332C161.936 152.412 161.95 152.492 161.959 152.572C161.986 152.797 162.001 153.023 162.003 153.25C162.003 154.431 161.605 155.509 160.822 156.454C160.297 157.091 159.638 157.605 158.891 157.958C158.144 158.311 157.328 158.494 156.503 158.495C155.677 158.494 154.861 158.311 154.114 157.958C153.367 157.605 152.708 157.091 152.183 156.454C151.4 155.509 151.003 154.431 151.003 153.25C151.004 153.023 151.019 152.797 151.046 152.572C151.055 152.492 151.069 152.412 151.081 152.332C151.103 152.182 151.129 152.031 151.161 151.878C151.182 151.781 151.203 151.684 151.227 151.587C151.261 151.449 151.301 151.309 151.341 151.17C151.372 151.067 151.4 150.965 151.433 150.862C151.484 150.709 151.541 150.554 151.598 150.4C151.667 150.216 151.74 150.032 151.818 149.849C151.866 149.735 151.912 149.622 151.964 149.508C152.022 149.38 152.083 149.252 152.145 149.123C152.197 149.016 152.249 148.908 152.304 148.801C152.365 148.676 152.428 148.554 152.491 148.434C152.558 148.309 152.626 148.184 152.694 148.064C152.75 147.964 152.804 147.864 152.861 147.765C152.986 147.546 153.118 147.327 153.25 147.115C153.278 147.069 153.307 147.026 153.335 146.98C153.457 146.786 153.58 146.594 153.704 146.407C153.723 146.377 153.743 146.348 153.762 146.318C154.6 145.071 155.514 143.877 156.5 142.744C157.486 143.877 158.401 145.071 159.238 146.319L159.301 146.406ZM137.01 126.92C136.932 127.326 135.644 134.205 135.516 141.799L125.47 135.997C128.685 131.943 132.664 128.559 137.182 126.038C137.076 126.321 137.016 126.62 137.005 126.922L137.01 126.92ZM135.5 142.949V142.996C135.5 149.687 138.65 155.654 143.541 159.503L143.531 159.514L144.884 160.626L124.851 172.193C120.956 166.998 118.414 160.917 117.453 154.496C118.414 148.076 120.956 141.995 124.85 136.8L135.5 142.949ZM145.709 161.304L149.97 164.804L138.951 183.891C133.706 181.298 129.1 177.575 125.465 172.991L145.709 161.304ZM139.522 184.909C139.929 189.395 146.983 192.868 156.002 192.993V199.987C148.389 199.901 140.965 197.603 134.635 193.374L139.522 184.909ZM157 192.993C166.018 192.868 173.072 189.395 173.48 184.909L178.367 193.374C172.037 197.603 164.613 199.901 157 199.987V192.993ZM163.03 164.806L167.291 161.306L187.535 172.993C183.9 177.578 179.294 181.3 174.049 183.894L163.03 164.806ZM168.116 160.625L169.469 159.513L169.459 159.502C174.35 155.657 177.5 149.687 177.5 142.996V142.949L188.149 136.8C192.044 141.995 194.586 148.076 195.547 154.497C194.586 160.917 192.044 166.998 188.15 172.193L168.116 160.625ZM192.812 132.954L188.415 135.494C184.687 130.758 179.952 126.911 174.553 124.232L179.194 116.192C185.195 120.415 189.908 126.217 192.812 132.954ZM178.37 115.619L173.726 123.662C171.851 122.392 168.918 121.368 165.322 120.725C165.775 119.666 166.006 118.526 166.003 117.374C166.003 114.896 165.011 112.183 163.682 109.657C168.931 110.625 173.928 112.654 178.367 115.619H178.37ZM156.5 101.24C157.394 102.249 159.763 105.034 161.773 108.348C160.025 108.116 158.264 107.997 156.5 107.993C154.737 107.997 152.976 108.116 151.228 108.348C153.239 105.032 155.606 102.249 156.5 101.24ZM147 117.377C146.997 118.528 147.229 119.668 147.681 120.727C144.085 121.368 141.152 122.392 139.277 123.665L134.633 115.622C139.073 112.657 144.07 110.629 149.321 109.662C147.992 112.186 147 114.899 147 117.377V117.377ZM133.809 116.189L138.451 124.23C133.051 126.909 128.316 130.755 124.587 135.491L120.191 132.952C123.095 126.215 127.809 120.414 133.809 116.192V116.189ZM119.809 133.887L123.975 136.293C120.686 140.705 118.341 145.748 117.086 151.106C117.029 150.24 116.998 149.369 116.998 148.491C116.998 143.489 117.953 138.534 119.812 133.89L119.809 133.887ZM117.086 157.879C118.341 163.238 120.686 168.282 123.976 172.695L119.809 175.101C117.95 170.455 116.995 165.498 116.996 160.494C117 159.619 117.031 158.748 117.087 157.882L117.086 157.879ZM120.189 176.036L124.586 173.497C128.314 178.233 133.05 182.079 138.449 184.758L133.807 192.799C127.808 188.576 123.095 182.775 120.191 176.039L120.189 176.036ZM179.189 192.799L174.547 184.758C179.946 182.08 184.682 178.233 188.41 173.497L192.807 176.036C189.904 182.775 185.191 188.577 179.191 192.801L179.189 192.799ZM193.189 175.101L189.023 172.695C192.311 168.283 194.656 163.24 195.912 157.882C195.968 158.748 195.999 159.619 195.999 160.497C196.001 165.5 195.046 170.458 193.188 175.103L193.189 175.101Z" fill="url(#paint3_linear_826_72)"/>
</g>
<rect x="25" y="22" width="262" height="262" rx="27" stroke="url(#paint4_linear_826_72)" stroke-width="2"/>
</g>
<g filter="url(#filter2_f_826_72)">
<ellipse cx="156" cy="21.5" rx="109" ry="1.5" fill="url(#paint5_linear_826_72)"/>
</g>
<defs>
<filter id="filter0_d_826_72" x="0" y="17" width="312" height="312" filterUnits="userSpaceOnUse" color-interpolation-filters="sRGB">
<feFlood flood-opacity="0" result="BackgroundImageFix"/>
<feColorMatrix in="SourceAlpha" type="matrix" values="0 0 0 0 0 0 0 0 0 0 0 0 0 0 0 0 0 0 127 0" result="hardAlpha"/>
<feOffset dy="20"/>
<feGaussianBlur stdDeviation="12"/>
<feComposite in2="hardAlpha" operator="out"/>
<feColorMatrix type="matrix" values="0 0 0 0 0 0 0 0 0 0 0 0 0 0 0 0 0 0 1 0"/>
<feBlend mode="normal" in2="BackgroundImageFix" result="effect1_dropShadow_826_72"/>
<feBlend mode="normal" in="SourceGraphic" in2="effect1_dropShadow_826_72" result="shape"/>
</filter>
<filter id="filter1_f_826_72" x="100" y="83.9999" width="113" height="132.996" filterUnits="userSpaceOnUse" color-interpolation-filters="sRGB">
<feFlood flood-opacity="0" result="BackgroundImageFix"/>
<feBlend mode="normal" in="SourceGraphic" in2="BackgroundImageFix" result="shape"/>
<feGaussianBlur stdDeviation="8" result="effect1_foregroundBlur_826_72"/>
</filter>
<filter id="filter2_f_826_72" x="27" y="0" width="258" height="43" filterUnits="userSpaceOnUse" color-interpolation-filters="sRGB">
<feFlood flood-opacity="0" result="BackgroundImageFix"/>
<feBlend mode="normal" in="SourceGraphic" in2="BackgroundImageFix" result="shape"/>
<feGaussianBlur stdDeviation="10" result="effect1_foregroundBlur_826_72"/>
</filter>
<linearGradient id="paint0_linear_826_72" x1="24" y1="21" x2="288" y2="285" gradientUnits="userSpaceOnUse">
<stop stop-color="#1A1A28"/>
<stop offset="0.5625" stop-color="#040407"/>
<stop offset="0.760417" stop-color="#151524"/>
<stop offset="1" stop-color="#030305"/>
</linearGradient>
<linearGradient id="paint1_linear_826_72" x1="48" y1="253" x2="304.056" y2="142.519" gradientUnits="userSpaceOnUse">
<stop stop-color="#2F313E"/>
<stop offset="0.322917" stop-color="#414559"/>
<stop offset="0.411458" stop-color="#4E536C"/>
<stop offset="0.755208" stop-color="#2E3350"/>
<stop offset="1" stop-color="#202229"/>
</linearGradient>
<linearGradient id="paint2_linear_826_72" x1="133.719" y1="100.001" x2="202.853" y2="110.791" gradientUnits="userSpaceOnUse">
<stop stop-color="#FBA9A5"/>
<stop offset="0.4375" stop-color="#EC7BFD"/>
<stop offset="1" stop-color="#557CF9"/>
</linearGradient>
<linearGradient id="paint3_linear_826_72" x1="133.719" y1="100.001" x2="202.853" y2="110.791" gradientUnits="userSpaceOnUse">
<stop stop-color="#F2B7B4"/>
<stop offset="0.4375" stop-color="#E989F7"/>
<stop offset="1" stop-color="#85A0F5"/>
</linearGradient>
<linearGradient id="paint4_linear_826_72" x1="81.7497" y1="21.0017" x2="304.142" y2="64.282" gradientUnits="userSpaceOnUse">
<stop stop-color="#FBA9A5"/>
<stop offset="0.4375" stop-color="#EC7BFD"/>
<stop offset="1" stop-color="#557CF9"/>
</linearGradient>
<linearGradient id="paint5_linear_826_72" x1="47" y1="21.5" x2="264.7" y2="29.6713" gradientUnits="userSpaceOnUse">
<stop stop-color="#EE9FBA"/>
<stop offset="1" stop-color="#977CFC"/>
</linearGradient>
</defs>
</svg>
