<svg width="312" height="312" viewBox="0 0 312 312" fill="none" xmlns="http://www.w3.org/2000/svg">
<g filter="url(#filter0_d_826_73)">
<rect x="24" y="4" width="264" height="264" rx="28" fill="url(#paint0_linear_826_73)"/>
<path opacity="0.6" d="M265 135.501C265 130.194 261.675 125.652 257 123.841V35.5C257 35.3674 256.947 35.2402 256.854 35.1464C256.76 35.0527 256.633 35 256.5 35H56.5C56.3674 35 56.2402 35.0527 56.1465 35.1464C56.0527 35.2402 56 35.3674 56 35.5V123.841C51.325 125.654 48 130.194 48 135.501C48 140.808 51.325 145.348 56 147.159V235.5C56 235.633 56.0527 235.76 56.1465 235.854C56.2402 235.947 56.3674 236 56.5 236H256.5C256.633 236 256.76 235.947 256.854 235.854C256.947 235.76 257 235.633 257 235.5V147.159C261.675 145.348 265 140.808 265 135.501ZM264 135.501C264.001 138.489 262.835 141.36 260.75 143.501H255.5C254.837 143.5 254.202 143.236 253.733 142.767C253.264 142.299 253.001 141.663 253 141.001V137.974C254.278 137.862 255.476 137.307 256.387 136.405C257.205 135.6 257.745 134.557 257.93 133.425C258.115 132.293 257.936 131.131 257.418 130.108L255.988 127.275C255.946 127.192 255.883 127.123 255.804 127.075C255.725 127.026 255.634 127.001 255.542 127.001H249.458C249.366 127.001 249.275 127.026 249.196 127.075C249.117 127.123 249.054 127.192 249.012 127.275L247.582 130.108C247.064 131.131 246.885 132.293 247.07 133.425C247.255 134.557 247.795 135.6 248.613 136.405C249.524 137.307 250.722 137.862 252 137.974V141.001C251.999 141.663 251.736 142.299 251.267 142.767C250.798 143.236 250.163 143.5 249.5 143.501H244.25C242.165 141.36 240.999 138.489 241 135.501C241 129.159 246.159 124.001 252.5 124.001C258.841 124.001 264 129.159 264 135.501ZM57 168.001H60V199.001H57V168.001ZM57.3163 135.695C56.6496 135.039 56.2088 134.188 56.0575 133.265C55.9061 132.341 56.0521 131.394 56.4744 130.559L57.7656 128.001H63.2344L64.5256 130.559C64.9479 131.394 65.0939 132.341 64.9425 133.265C64.7912 134.188 64.3504 135.039 63.6837 135.695C62.8347 136.531 61.6911 136.999 60.4999 136.999C59.3086 136.999 58.1652 136.53 57.3163 135.694V135.695ZM63.5 144.501H67.6462C65.6169 146.121 63.0968 147.003 60.5 147.001C57.9032 147.003 55.3831 146.121 53.3538 144.501H63.5ZM59.945 143.501C60.1595 143.29 60.346 143.053 60.5 142.794C60.654 143.053 60.8405 143.29 61.055 143.501H59.945ZM256 103.001H253V72.0012H256V103.001ZM213.006 231.001C213.069 221.285 216.751 212.406 222.782 205.603C223.315 205.099 223.842 204.59 224.365 204.074L232.012 211.72C227.166 216.738 224.142 223.521 224.012 231.001H213.006ZM170.361 231.001C188.527 228.37 205.177 220.649 218.698 209.251C214.377 215.686 212.05 223.251 212.006 231.001H170.361ZM100.486 231.001C100.401 222.937 97.9178 215.08 93.3513 208.433C107.039 220.276 124.044 228.308 142.639 231L100.486 231.001ZM88.9856 231.001C88.8556 223.521 85.8325 216.738 80.9856 211.72L88.5762 204.13C95.4787 211.386 99.3765 220.987 99.485 231.001H88.9856ZM252 203.013C244.52 203.143 237.737 206.166 232.719 211.013L225.076 203.371C225.511 202.933 225.941 202.49 226.367 202.043C233.473 195.833 242.563 192.365 252 192.263V203.013ZM230 198.01C241.464 184.568 249.331 167.901 252 149.418V191.263C244.169 191.343 236.529 193.687 230 198.01V198.01ZM225.681 201.313C224.401 202.434 223.192 203.634 222.062 204.906C216.777 209.893 210.943 214.264 204.672 217.936L199.172 208.408C211.659 201.066 222.067 190.659 229.409 178.171L238.967 183.689C235.233 190.057 230.775 195.971 225.681 201.313V201.313ZM153.169 219.929C152.205 220.504 151.406 221.32 150.85 222.297C150.295 223.273 150.002 224.377 150 225.5C150.001 226.577 150.269 227.637 150.781 228.584C151.293 229.532 152.032 230.337 152.932 230.928C137.557 230.363 122.549 226.077 109.194 218.438L114.694 208.912C126.443 215.633 139.643 219.413 153.169 219.929V219.929ZM106.946 185.909C110.821 185.178 114.604 184.603 116.218 185.895C117.894 187.238 118.196 191.054 118.343 195.031L117.682 195.321C113.345 197.228 108.86 199.2 106.926 197.655C104.976 196.098 105.909 191.269 106.811 186.599C106.856 186.368 106.901 186.138 106.946 185.909V185.909ZM90.0887 159.333C93.8644 160.361 97.4181 161.508 98.335 163.413C99.245 165.304 97.7787 168.937 96.1662 172.606L95.6625 172.589C90.8894 172.433 85.9531 172.271 84.86 170.005C83.7975 167.799 86.7038 163.887 89.5169 160.104C89.7081 159.846 89.8987 159.589 90.0887 159.333V159.333ZM85.7044 142.639C81.425 140.4 77 138.084 77 135.501C77 132.917 81.425 130.601 85.7044 128.361L86.2044 128.101C89.2081 130.695 92.0037 133.309 92 135.426C91.9956 137.559 89.1081 140.204 86.0513 142.819L85.7044 142.639ZM85.8044 126.44C82.1913 123.347 78.4556 120.148 79.0119 117.716C79.5644 115.303 84.3012 114.054 88.8831 112.848L89.5806 112.663C91.9394 115.868 94.0806 119.042 93.6037 121.137C93.145 123.153 89.8281 125.056 86.3387 126.899L85.8044 126.44ZM89.5169 110.896C86.7044 107.113 83.7956 103.201 84.86 100.995C85.9538 98.7288 90.8894 98.5675 95.6625 98.4112L96.3556 98.3881C97.9287 102.005 99.315 105.553 98.41 107.429C97.4838 109.35 93.8231 110.492 89.9806 111.521C89.8269 111.313 89.6719 111.106 89.5169 110.896V110.896ZM96.7369 96.7663C94.8044 92.3725 92.8056 87.8287 94.3975 85.8412C95.9063 83.9575 100.658 84.8825 105.251 85.7787L106.089 85.9412C106.825 89.8444 107.388 93.6344 106.066 95.2894C104.754 96.9313 100.952 97.22 97 97.3663L96.7369 96.7663ZM106.812 84.4006C105.911 79.7306 104.978 74.9006 106.928 73.3444C108.866 71.8 113.347 73.7725 117.684 75.6794L118.518 76.045C118.356 79.9669 118.023 83.6906 116.348 85.0219C114.649 86.3731 110.863 85.8256 106.944 85.0844C106.901 84.8585 106.857 84.6306 106.812 84.4006ZM114.693 62.0881L109.193 52.5618C122.548 44.9222 137.558 40.6366 152.933 40.0725C152.033 40.6632 151.293 41.4686 150.781 42.4161C150.269 43.3636 150.001 44.4236 150 45.5006C150.002 46.624 150.295 47.7276 150.85 48.704C151.406 49.6805 152.205 50.4962 153.169 51.0718C139.643 51.5875 126.443 55.3671 114.693 62.0881ZM159.831 51.0718C160.795 50.4962 161.594 49.6805 162.15 48.704C162.705 47.7276 162.998 46.624 163 45.5006C162.999 44.4237 162.731 43.3639 162.219 42.4164C161.707 41.469 160.968 40.6636 160.068 40.0725C175.443 40.6374 190.451 44.9235 203.806 52.5631L198.306 62.0888C186.557 55.3673 173.357 51.5875 159.831 51.0718V51.0718ZM156.599 55.9975H156.603C159.098 56.0025 161.374 60.3625 163.576 64.5787C163.684 64.785 163.791 64.9904 163.898 65.195C161.294 68.2144 158.671 71.0006 156.5 71.0006C154.361 71.0006 151.782 68.2944 149.214 65.3256L149.639 64.5206C151.844 60.33 154.125 55.9956 156.599 55.9956V55.9975ZM206.054 85.0919C202.179 85.8225 198.396 86.3981 196.782 85.1056C195.106 83.7625 194.804 79.9463 194.657 75.9694C194.877 75.8735 195.097 75.7769 195.318 75.6794C199.655 73.7725 204.139 71.8006 206.074 73.345C208.024 74.9019 207.091 79.7313 206.189 84.4013C206.144 84.6308 206.099 84.861 206.054 85.0919V85.0919ZM222.911 111.667C219.136 110.64 215.582 109.493 214.665 107.588C213.755 105.696 215.221 102.064 216.834 98.395L217.337 98.4112C222.111 98.5675 227.047 98.7294 228.14 100.996C229.202 103.202 226.296 107.113 223.483 110.896L222.911 111.667ZM227.296 128.361C231.575 130.601 236 132.916 236 135.501C236 138.086 231.575 140.4 227.296 142.639L226.796 142.9C223.792 140.306 220.996 137.693 221 135.575C221.004 133.441 223.892 130.797 226.949 128.181L227.296 128.361ZM227.196 144.56C230.809 147.654 234.544 150.853 233.988 153.284C233.436 155.698 228.699 156.946 224.117 158.153L223.419 158.338C221.061 155.133 218.919 151.958 219.396 149.864C219.855 147.848 223.172 145.944 226.661 144.102L227.196 144.56ZM223.483 160.104C226.296 163.888 229.204 167.799 228.14 170.005C227.046 172.272 222.111 172.433 217.337 172.589L216.644 172.613C215.071 168.995 213.685 165.448 214.59 163.571C215.516 161.651 219.177 160.509 223.019 159.479L223.483 160.104ZM216.263 174.234C218.196 178.628 220.194 183.171 218.603 185.159C217.094 187.043 212.343 186.118 207.749 185.222L206.911 185.059C206.175 181.156 205.612 177.366 206.934 175.711C208.246 174.069 212.048 173.781 216 173.634L216.263 174.234ZM206.188 186.599C207.089 191.27 208.022 196.099 206.072 197.656C204.134 199.201 199.653 197.228 195.316 195.321C195.037 195.199 194.759 195.077 194.482 194.956C194.644 191.034 194.977 187.31 196.652 185.979C198.351 184.628 202.138 185.174 206.056 185.916C206.099 186.143 206.143 186.371 206.188 186.599ZM142.324 197.403C142.311 197.4 142.299 197.394 142.286 197.392C142.273 197.389 142.241 197.385 142.219 197.381C136.156 195.981 130.334 193.692 124.941 190.588L126.441 187.991C135.438 193.166 145.621 195.924 156 195.996V198.996C151.397 198.963 146.811 198.429 142.324 197.403V197.403ZM101.521 167.246L104.119 165.746C109.312 174.695 116.697 182.175 125.579 187.482L124.079 190.079C114.742 184.509 106.978 176.65 101.521 167.246V167.246ZM92.0575 138.124C92.1799 141.186 92.5203 144.236 93.0762 147.249C91.6544 145.866 89.4225 144.601 87.0006 143.319C89.0825 141.531 90.9775 139.799 92.0575 138.124V138.124ZM101.519 103.76L104.116 105.26C98.8737 114.3 96.0785 124.551 96.0063 135.001H93.0063C93.0781 124.024 96.0122 113.256 101.519 103.759V103.76ZM124.327 80.7757L125.827 83.3731C117.126 88.5158 109.84 95.7411 104.625 104.399L102.027 102.899C107.507 93.7858 115.171 86.182 124.327 80.775V80.7757ZM156 72.0068V75.0069C145.719 75.0784 135.628 77.786 126.691 82.8706L125.191 80.2725C134.583 74.9241 145.192 72.0779 156 72.0068V72.0068ZM170.676 73.5975C170.689 73.5975 170.701 73.6056 170.714 73.6087C170.727 73.6118 170.748 73.6131 170.765 73.6162C176.646 74.9735 182.301 77.1677 187.558 80.1319L186.058 82.7294C177.183 77.7351 167.184 75.0778 157 75.0069V72.0068C161.603 72.0392 166.189 72.5725 170.676 73.5975V73.5975ZM210.972 102.899L208.374 104.399C203.11 95.6571 195.735 88.377 186.926 83.2262L188.426 80.6287C197.69 86.044 205.443 93.7023 210.972 102.899V102.899ZM220.943 132.877C220.82 129.815 220.48 126.765 219.924 123.752C221.346 125.136 223.577 126.401 225.999 127.682C223.917 129.469 222.023 131.201 220.943 132.877V132.877ZM211.971 166.377L209.374 164.877C214.302 156.046 216.923 146.115 216.994 136.002H219.994C219.923 146.641 217.163 157.089 211.971 166.375V166.377ZM188.673 190.228L187.173 187.63C196.164 182.315 203.64 174.78 208.881 165.746L211.479 167.246C205.973 176.734 198.12 184.648 188.673 190.226V190.228ZM157 198.996V195.996C167.281 195.924 177.372 193.217 186.309 188.133L187.809 190.73C178.417 196.079 167.808 198.925 157 198.996V198.996ZM97.3562 142.003H116V143.503C116 165.666 133.899 183.719 156 183.989V194.996C125.614 194.742 100.587 171.599 97.3562 142.001V142.003ZM156 76.0087V83.3081C155.312 84.0581 152.299 87.45 149.943 91.5419C131.523 94.5544 117.247 110.032 116.085 129.004H97.3562C100.587 99.4012 125.614 76.2587 156 76.0069V76.0087ZM215.644 129.003H196.915C195.753 110.031 181.477 94.5531 163.057 91.5406C160.701 87.4488 157.683 84.0569 157 83.3069V76.0087C187.386 76.2587 212.413 99.4013 215.644 129.001V129.003ZM157 194.996V183.989C179.101 183.719 197 165.666 197 143.503V142.003H215.644C212.413 171.599 187.386 194.742 157 194.996ZM110.527 141.003L107.09 135.503L110.527 130.003H116.038C116.02 130.503 116 130.999 116 131.503V141.003H110.527ZM109.348 141.003H103.652L106.5 136.446L109.348 141.003ZM106.5 134.558L103.652 130.002H109.348L106.5 134.558ZM133.809 99.1994L138.451 107.239C133.052 109.917 128.316 113.762 124.587 118.496L120.191 115.957C120.919 114.258 121.767 112.612 122.727 111.031C125.57 106.368 129.342 102.34 133.809 99.1981V99.1994ZM141.139 95.1106C143.77 94.0006 146.513 93.1812 149.321 92.6669C147.992 95.1931 147 97.9063 147 100.384C146.997 101.536 147.229 102.676 147.681 103.735C144.085 104.375 141.152 105.399 139.277 106.669L134.633 98.6269C136.687 97.2531 138.865 96.0754 141.139 95.1094V95.1106ZM156.5 84.2456C157.394 85.2556 159.763 88.04 161.773 91.3537C160.025 91.1211 158.264 91.0027 156.5 90.9994C154.737 91.0028 152.976 91.121 151.228 91.3531C153.239 88.0419 155.606 85.2569 156.5 84.2456ZM156.5 91.9994C158.478 91.9994 160.453 92.1475 162.409 92.4425C163.866 95.0431 165 97.8731 165 100.38C165.005 101.479 164.767 102.565 164.305 103.562C161.721 103.179 159.112 102.991 156.5 102.999C153.888 102.991 151.279 103.179 148.695 103.562C148.233 102.566 147.996 101.481 148 100.383C148 97.875 149.135 95.045 150.592 92.4456C152.547 92.15 154.522 92.0013 156.5 92.0006V91.9994ZM178.367 98.6244L173.723 106.668C171.848 105.398 168.915 104.373 165.319 103.73C165.771 102.672 166.003 101.533 166 100.383C166 97.905 165.008 95.1919 163.679 92.6656C166.487 93.18 169.23 93.9994 171.861 95.1094C174.135 96.075 176.313 97.2523 178.367 98.6256V98.6244ZM190.273 111.032C191.233 112.613 192.081 114.259 192.809 115.958L188.412 118.497C184.684 113.762 179.948 109.915 174.549 107.237L179.191 99.1969C183.658 102.34 187.431 106.369 190.273 111.034V111.032ZM202.473 129.999L205.91 135.499L202.473 140.999H197V131.499C197 130.996 196.98 130.499 196.962 129.999H202.473ZM203.652 129.999H209.348L206.5 134.558L203.652 129.999ZM206.5 136.443L209.348 140.999H203.652L206.5 136.443ZM138.951 166.896C133.706 164.302 129.101 160.58 125.465 155.996L145.709 144.308L149.97 147.808L138.951 166.896ZM149.062 105.987C149.967 107.085 151.102 107.969 152.388 108.576C153.674 109.184 155.078 109.499 156.5 109.501C157.923 109.5 159.327 109.185 160.614 108.577C161.9 107.97 163.036 107.085 163.941 105.987C164.286 105.571 164.595 105.127 164.864 104.659C171.149 105.721 175 107.914 175 110.001C175 110.089 174.993 110.176 174.979 110.263C174.979 110.277 174.973 110.291 174.971 110.305C174.957 110.384 174.938 110.462 174.915 110.539C174.915 110.544 174.911 110.55 174.909 110.556C174.653 111.357 173.851 112.157 172.584 112.888C172.554 112.905 172.526 112.923 172.496 112.939L172.451 112.963C170.116 114.254 166.345 115.282 161.844 115.737C161.81 115.741 161.778 115.748 161.744 115.752C160.109 115.911 158.357 116.002 156.5 116.002C154.643 116.002 152.891 115.913 151.256 115.752C151.222 115.748 151.19 115.741 151.156 115.737C146.656 115.282 142.884 114.254 140.549 112.963L140.504 112.939C140.474 112.923 140.446 112.905 140.416 112.888C139.149 112.157 138.347 111.357 138.091 110.556C138.091 110.55 138.086 110.544 138.085 110.539C138.062 110.462 138.043 110.384 138.029 110.305C138.029 110.291 138.023 110.277 138.021 110.263C138.007 110.176 138 110.089 138 110.001C138 107.914 141.851 105.724 148.136 104.659C148.406 105.127 148.716 105.571 149.062 105.987V105.987ZM149.214 104.493C151.629 104.157 154.065 103.993 156.503 104.001C158.941 103.993 161.377 104.157 163.792 104.493C163.604 104.79 163.397 105.076 163.174 105.349C162.363 106.334 161.344 107.127 160.19 107.672C159.036 108.217 157.776 108.5 156.5 108.501C155.224 108.5 153.965 108.217 152.812 107.672C151.658 107.127 150.64 106.334 149.829 105.349C149.606 105.077 149.4 104.792 149.211 104.496L149.214 104.493ZM163.033 147.81L167.294 144.31L187.538 155.998C183.903 160.582 179.297 164.305 174.052 166.898L163.033 147.81ZM150.733 147.14L148.751 145.511C151.216 146.496 153.846 147.001 156.501 147.001C159.155 147.001 161.786 146.496 164.251 145.511L162.268 147.14C161.056 148.132 160.214 149.504 159.878 151.034C159.541 152.563 159.731 154.162 160.415 155.571L162.312 159.496C160.393 159.163 158.448 158.998 156.5 159.003C154.552 158.998 152.607 159.163 150.688 159.496L152.582 155.574C153.267 154.165 153.457 152.566 153.121 151.035C152.785 149.505 151.943 148.132 150.73 147.14H150.733ZM155.259 116.986C155.36 116.986 155.459 116.991 155.561 116.992C155.873 116.998 156.187 117.001 156.503 117.001C156.819 117.001 157.133 116.998 157.446 116.992C157.547 116.992 157.646 116.988 157.747 116.986C157.959 116.981 158.171 116.976 158.381 116.969L158.676 116.958C157.71 117.667 156.958 118.63 156.503 119.739C156.048 118.63 155.296 117.667 154.33 116.958L154.625 116.969C154.832 116.976 155.044 116.981 155.256 116.986H155.259ZM158.815 128.701C158.944 128.884 159.074 129.076 159.204 129.269C159.246 129.331 159.289 129.394 159.329 129.461C159.42 129.599 159.511 129.742 159.601 129.885C159.658 129.974 159.714 130.061 159.77 130.151C159.868 130.31 159.964 130.472 160.059 130.634C160.161 130.808 160.26 130.984 160.358 131.161C160.403 131.244 160.449 131.326 160.493 131.411C160.57 131.555 160.644 131.701 160.718 131.849C160.759 131.93 160.799 132.012 160.839 132.094C160.91 132.241 160.981 132.389 161.048 132.538C161.084 132.619 161.117 132.7 161.152 132.781C161.255 133.021 161.351 133.262 161.438 133.503C161.482 133.623 161.528 133.744 161.567 133.865C161.603 133.976 161.634 134.085 161.666 134.195C161.704 134.328 161.742 134.46 161.774 134.592C161.799 134.693 161.822 134.793 161.842 134.893C161.874 135.043 161.9 135.192 161.922 135.34C161.934 135.421 161.948 135.503 161.958 135.584C161.984 135.809 161.999 136.035 162.001 136.261C162.001 137.442 161.603 138.519 160.82 139.465C160.295 140.103 159.636 140.616 158.889 140.969C158.142 141.322 157.327 141.505 156.501 141.506C155.675 141.505 154.859 141.322 154.112 140.969C153.366 140.616 152.706 140.103 152.181 139.465C151.398 138.519 151.001 137.442 151.001 136.261C151.002 136.035 151.017 135.808 151.044 135.583C151.053 135.504 151.067 135.424 151.079 135.343C151.101 135.193 151.128 135.042 151.159 134.889C151.18 134.793 151.201 134.696 151.226 134.599C151.259 134.46 151.299 134.321 151.34 134.181C151.37 134.079 151.398 133.976 151.431 133.874C151.482 133.719 151.539 133.561 151.598 133.408C151.665 133.226 151.738 133.045 151.814 132.864C151.863 132.749 151.911 132.634 151.962 132.519C152.02 132.394 152.081 132.264 152.142 132.138C152.194 132.028 152.248 131.919 152.303 131.811C152.364 131.689 152.427 131.567 152.491 131.447C152.558 131.322 152.627 131.197 152.697 131.072C152.752 130.974 152.805 130.876 152.861 130.779C152.986 130.559 153.119 130.341 153.251 130.126C153.278 130.083 153.306 130.041 153.333 130.001C153.458 129.804 153.583 129.61 153.708 129.421L153.762 129.337C154.6 128.089 155.515 126.895 156.502 125.761C157.318 126.698 158.086 127.677 158.802 128.694L158.815 128.701ZM137.69 111.881C137.711 111.91 137.736 111.938 137.758 111.966C137.781 111.994 137.799 112.017 137.821 112.043C137.842 112.069 137.865 112.099 137.889 112.127C137.921 112.164 137.956 112.201 137.989 112.238L138.067 112.321C138.125 112.384 138.185 112.446 138.248 112.504L138.337 112.589C138.388 112.635 138.438 112.681 138.49 112.728L138.553 112.781C138.581 112.806 138.611 112.83 138.641 112.854C138.708 112.909 138.775 112.963 138.845 113.018L138.851 113.023C138.894 113.055 138.938 113.085 138.982 113.12C139.045 113.168 139.114 113.216 139.182 113.264L139.283 113.333L139.389 113.404C139.441 113.437 139.492 113.471 139.545 113.505L139.718 113.612L139.824 113.674L139.933 113.737C140.012 113.783 140.092 113.828 140.174 113.872C140.231 113.904 140.288 113.934 140.347 113.966C140.439 114.016 140.534 114.064 140.631 114.112L140.786 114.189L140.809 114.201L140.834 114.214C140.924 114.257 141.018 114.299 141.111 114.342L141.251 114.405C141.37 114.458 141.492 114.511 141.615 114.562L141.74 114.616C141.819 114.649 141.898 114.679 141.979 114.713C142.011 114.726 142.041 114.738 142.076 114.751L142.133 114.773L142.258 114.822C142.366 114.863 142.477 114.904 142.589 114.947L142.699 114.986L142.802 115.023C142.936 115.07 143.073 115.116 143.21 115.161C143.264 115.179 143.318 115.198 143.374 115.216C143.502 115.258 143.634 115.298 143.767 115.341C143.834 115.361 143.901 115.383 143.97 115.403L144.012 115.416L144.034 115.423C144.131 115.451 144.231 115.479 144.331 115.507C144.419 115.532 144.506 115.557 144.596 115.581L144.73 115.618L144.914 115.666C145.025 115.694 145.136 115.724 145.249 115.752L145.413 115.792L145.636 115.846L145.928 115.914L146.061 115.943L146.148 115.963C146.224 115.979 146.299 115.997 146.376 116.013C146.453 116.029 146.543 116.048 146.626 116.066L146.664 116.073C147.072 116.156 147.489 116.235 147.914 116.309C147.996 116.324 148.079 116.337 148.161 116.351C148.349 116.381 148.532 116.413 148.72 116.44L149.014 116.483C149.193 116.509 149.374 116.534 149.556 116.558L149.857 116.598C150.051 116.623 150.246 116.645 150.443 116.668L150.709 116.698C150.829 116.711 150.951 116.723 151.073 116.735C153.886 117.028 156.001 119.402 156.001 122.266C155.994 123.811 155.483 125.312 154.544 126.539C153.717 127.589 152.706 128.989 151.846 130.526C151.808 130.592 151.773 130.659 151.736 130.726C151.674 130.834 151.619 130.942 151.561 131.051C151.51 131.148 151.46 131.245 151.41 131.344C151.373 131.419 151.336 131.493 151.299 131.569C151.107 131.961 150.931 132.356 150.774 132.753C150.749 132.812 150.726 132.872 150.703 132.931C150.658 133.05 150.614 133.169 150.572 133.288C150.547 133.358 150.525 133.428 150.502 133.498C150.464 133.612 150.426 133.726 150.392 133.84C150.347 133.989 150.307 134.138 150.267 134.286C150.242 134.384 150.221 134.482 150.199 134.579C150.174 134.692 150.15 134.804 150.129 134.917C150.116 134.994 150.103 135.071 150.091 135.148C150.072 135.271 150.057 135.393 150.044 135.515C150.037 135.578 150.029 135.64 150.024 135.703C150.009 135.89 149.999 136.072 149.999 136.254C149.999 137.674 150.473 138.966 151.409 140.096C152.028 140.847 152.805 141.452 153.685 141.867C154.565 142.282 155.526 142.498 156.499 142.499C157.472 142.498 158.433 142.282 159.312 141.867C160.192 141.452 160.969 140.847 161.588 140.096C162.526 138.966 162.999 137.674 162.999 136.254C162.999 136.072 162.989 135.888 162.974 135.703C162.969 135.64 162.961 135.578 162.954 135.515C162.94 135.393 162.925 135.271 162.906 135.148C162.894 135.071 162.882 134.994 162.868 134.917C162.847 134.804 162.824 134.692 162.799 134.579C162.777 134.482 162.756 134.384 162.731 134.286C162.693 134.138 162.653 133.989 162.606 133.84C162.572 133.726 162.534 133.612 162.496 133.498C162.472 133.428 162.45 133.358 162.426 133.288C162.384 133.169 162.34 133.05 162.294 132.931C162.272 132.872 162.248 132.812 162.224 132.753C162.066 132.356 161.891 131.961 161.698 131.569C161.662 131.493 161.625 131.419 161.587 131.344C161.538 131.245 161.488 131.148 161.436 131.051C161.379 130.942 161.321 130.834 161.261 130.726C161.225 130.659 161.189 130.592 161.152 130.526C160.292 128.989 159.281 127.588 158.454 126.539C157.515 125.312 157.003 123.811 156.996 122.266C156.996 119.402 159.114 117.028 161.924 116.735C162.049 116.723 162.168 116.711 162.289 116.698L162.554 116.668C162.751 116.645 162.947 116.623 163.141 116.598L163.442 116.558C163.624 116.534 163.804 116.509 163.983 116.483L164.277 116.44C164.465 116.411 164.653 116.381 164.836 116.351C164.918 116.337 165.002 116.324 165.086 116.309C165.512 116.236 165.929 116.157 166.336 116.073L166.374 116.066C166.458 116.048 166.542 116.031 166.624 116.013C166.706 115.995 166.776 115.979 166.852 115.963L166.939 115.943L167.072 115.914L167.364 115.846L167.587 115.792L167.751 115.752C167.864 115.724 167.975 115.694 168.086 115.666L168.27 115.618L168.404 115.581C168.494 115.557 168.581 115.532 168.669 115.507C168.769 115.479 168.869 115.451 168.966 115.423L168.988 115.416L169.03 115.403C169.099 115.383 169.166 115.362 169.233 115.341C169.366 115.3 169.498 115.259 169.626 115.216C169.682 115.198 169.736 115.179 169.79 115.161C169.927 115.116 170.064 115.07 170.198 115.023L170.301 114.986L170.411 114.947C170.523 114.906 170.634 114.866 170.742 114.822L170.867 114.773L170.924 114.751C170.956 114.738 170.989 114.726 171.021 114.713C171.102 114.681 171.181 114.65 171.26 114.616L171.385 114.562C171.51 114.511 171.63 114.458 171.749 114.405L171.889 114.342C171.982 114.299 172.077 114.257 172.166 114.214L172.191 114.201L172.214 114.189L172.369 114.112C172.465 114.064 172.561 114.016 172.653 113.966C172.712 113.935 172.769 113.904 172.826 113.872C172.909 113.828 172.989 113.783 173.067 113.737L173.176 113.674L173.282 113.612L173.455 113.505C173.508 113.471 173.559 113.437 173.611 113.404L173.717 113.333L173.818 113.264C173.886 113.216 173.953 113.168 174.018 113.12C174.062 113.088 174.106 113.058 174.149 113.022L174.155 113.018C174.225 112.963 174.292 112.909 174.359 112.854C174.389 112.83 174.419 112.806 174.447 112.781C174.476 112.757 174.49 112.746 174.51 112.727C174.563 112.681 174.613 112.635 174.663 112.589L174.752 112.504C174.814 112.442 174.877 112.379 174.933 112.321L175.011 112.238C175.044 112.201 175.079 112.164 175.111 112.127C175.135 112.099 175.157 112.071 175.179 112.043C175.202 112.016 175.222 111.991 175.242 111.966C175.262 111.94 175.289 111.91 175.31 111.881C175.747 114.631 176.497 120.198 176.497 126.001C176.497 137.028 167.526 146.001 156.497 146.001C145.469 146.001 136.497 137.028 136.497 126.001C136.5 120.198 137.25 114.633 137.688 111.881H137.69ZM156.503 160C158.642 159.996 160.776 160.212 162.871 160.646L165.846 166.804V166.808C165.946 167.025 165.999 167.261 166.001 167.5C166.001 169.432 162.183 171.5 156.501 171.5C150.818 171.5 147.001 169.432 147.001 167.5C147.002 167.259 147.056 167.022 147.158 166.804L150.133 160.646C152.227 160.212 154.361 159.996 156.5 160H156.503ZM157.003 172.489C162.648 172.368 167.003 170.224 167.003 167.5C167.001 167.111 166.915 166.727 166.749 166.375C166.746 166.367 166.742 166.359 166.738 166.351L164.123 160.938C169.069 162.231 172.503 164.718 172.503 167.501C172.503 171.488 165.454 174.866 157.003 174.994V172.489ZM163.543 159.739L161.319 155.136C160.798 154.062 160.612 152.856 160.783 151.675C160.955 150.494 161.477 149.392 162.283 148.511L170.375 162.532C168.652 161.319 166.302 160.352 163.541 159.739H163.543ZM168.119 143.629L169.471 142.518L169.462 142.506C174.352 138.658 177.503 132.694 177.503 126.001V125.953L188.152 119.805C192.046 124.999 194.588 131.08 195.549 137.501C194.587 143.921 192.045 150.002 188.15 155.196L168.119 143.629ZM177.494 124.805C177.366 117.212 176.078 110.333 176 109.927C175.991 109.626 175.932 109.328 175.827 109.046C180.346 111.567 184.325 114.951 187.54 119.005L177.494 124.805ZM137.01 109.927C136.932 110.333 135.644 117.212 135.516 124.805L125.47 119.004C128.684 114.95 132.664 111.566 137.182 109.046C137.076 109.328 137.016 109.625 137.005 109.927H137.01ZM135.5 125.953V126.001C135.5 132.692 138.65 138.658 143.541 142.506L143.531 142.518L144.884 143.629L124.851 155.196C120.956 150.001 118.414 143.92 117.453 137.5C118.414 131.08 120.956 124.999 124.85 119.804L135.5 125.953ZM150.72 148.512C151.525 149.393 152.047 150.495 152.219 151.676C152.391 152.858 152.204 154.063 151.683 155.137L149.459 159.74C146.698 160.353 144.348 161.32 142.625 162.534L150.72 148.512ZM148.879 160.939L146.247 166.386C146.086 166.735 146 167.115 145.997 167.5C145.997 170.224 150.352 172.368 155.997 172.489V174.996C147.546 174.867 140.497 171.489 140.497 167.502C140.5 164.718 143.933 162.232 148.879 160.939V160.939ZM157 175.996C166.018 175.871 173.072 172.398 173.48 167.912L178.367 176.376C172.036 180.605 164.613 182.902 157 182.988V175.996ZM179.191 175.804L174.549 167.764C180.079 165.007 184.771 161.139 188.413 156.504L192.809 159.042C189.905 165.779 185.191 171.58 179.191 175.803V175.804ZM193.191 158.107L189.025 155.701C192.314 151.289 194.659 146.247 195.914 140.889C195.971 141.754 196.002 142.626 196.002 143.503C196.002 148.505 195.047 153.462 193.188 158.106L193.191 158.107ZM195.914 134.116C194.658 128.758 192.313 123.716 189.024 119.304L193.191 116.898C194.056 119.052 194.728 121.279 195.198 123.553C195.733 126.168 196.002 128.831 196 131.501C196 132.378 195.969 133.249 195.913 134.115L195.914 134.116ZM119.812 116.895L123.979 119.301C120.69 123.713 118.345 128.755 117.089 134.113C117.033 133.248 117.002 132.376 117.002 131.499C117.001 128.829 117.27 126.165 117.806 123.548C118.276 121.275 118.948 119.049 119.812 116.895V116.895ZM117.089 140.886C118.345 146.244 120.691 151.286 123.979 155.698L119.812 158.104C117.953 153.459 116.999 148.502 117 143.499C117 142.621 117.031 141.751 117.087 140.886H117.089ZM124.589 156.502C128.318 161.237 133.053 165.084 138.452 167.763L133.81 175.803C127.81 171.58 123.096 165.778 120.192 159.041L124.589 156.502ZM139.521 167.911C139.927 172.396 146.981 175.871 156 175.996V182.989C148.387 182.903 140.963 180.606 134.633 176.376L139.521 167.911ZM216 135.501C216 137.355 215.91 139.188 215.743 141.001H210.527L207.09 135.501L210.527 130.001H215.743C215.91 131.812 216 133.646 216 135.501ZM97 135.501C97 133.646 97.09 131.813 97.2569 130.001H102.473L105.91 135.501L102.473 141.001H97.2569C97.09 139.189 97 137.355 97 135.501ZM219.994 135.001H216.994C216.921 124.551 214.126 114.3 208.884 105.259L211.481 103.759C216.988 113.256 219.922 124.024 219.994 135.001V135.001ZM208.527 97.4244C210.419 98.0744 212.997 98.2519 215.759 98.3569C214.657 100.879 213.693 103.268 213.446 105.241C211.996 102.521 210.352 99.9091 208.527 97.4244V97.4244ZM93.0063 136.001H96.0063C96.0772 146.113 98.6983 156.045 103.627 164.876L101.029 166.376C95.8365 157.089 93.0768 146.64 93.0063 136.001V136.001ZM104.473 173.576C102.581 172.927 100.003 172.749 97.2413 172.644C98.3431 170.122 99.3075 167.733 99.5538 165.759C101.005 168.479 102.648 171.091 104.473 173.576V173.576ZM168.117 198.951C166.766 200.314 165.531 202.421 164.289 204.731C162.566 202.749 160.892 200.97 159.261 199.938C162.232 199.814 165.191 199.483 168.117 198.95V198.951ZM170.784 198.417C172.846 197.95 176.058 200.174 179.279 202.563C179.239 202.714 179.199 202.865 179.159 203.018C177.936 207.66 176.671 212.461 174.188 213.025C171.834 213.559 168.692 209.879 165.654 206.318L164.99 205.542C166.831 202.092 168.737 198.879 170.784 198.416V198.417ZM173.378 197.757C176.338 196.953 179.237 195.938 182.052 194.719C181.01 196.413 180.269 198.872 179.556 201.523C177.351 199.894 175.245 198.433 173.375 197.756L173.378 197.757ZM184.487 193.632C186.376 192.72 189.869 194.048 193.457 195.601C193.444 195.939 193.432 196.279 193.421 196.621C193.259 201.299 193.091 206.137 190.916 207.184C188.622 208.288 184.644 205.318 180.797 202.446L180.422 202.165C181.452 198.289 182.582 194.549 184.487 193.631V193.632ZM186.876 192.386C189.514 190.971 192.051 189.375 194.468 187.608C193.822 189.436 193.617 191.886 193.5 194.531C191.078 193.488 188.789 192.605 186.875 192.385L186.876 192.386ZM198.728 184.218C201.033 182.217 203.195 180.056 205.197 177.751C204.984 179.706 205.36 182.201 205.856 184.862C203.187 184.363 200.694 183.996 198.728 184.217V184.218ZM208.527 173.578C210.315 171.143 211.929 168.586 213.359 165.926C213.591 167.86 214.506 170.189 215.571 172.653C212.88 172.757 210.375 172.941 208.527 173.577V173.578ZM215.696 161.103C216.907 158.313 217.918 155.441 218.721 152.507C219.378 154.363 220.789 156.441 222.382 158.616C219.774 159.321 217.367 160.063 215.696 161.102V161.103ZM219.924 147.253C220.471 144.292 220.81 141.297 220.938 138.289C221.991 139.939 223.823 141.642 225.85 143.401C223.484 144.655 221.316 145.896 219.924 147.251V147.253ZM227.2 126.656L226.817 126.982C223.271 125.114 219.862 123.184 219.396 121.138C218.927 119.076 220.995 115.966 223.311 112.812C223.618 112.895 223.927 112.977 224.238 113.059C228.794 114.269 233.506 115.519 234.046 117.909C234.601 120.362 230.839 123.558 227.2 126.654V126.656ZM218.721 118.496C217.934 115.622 216.949 112.806 215.77 110.069C217.403 111.093 219.738 111.833 222.277 112.531C220.728 114.653 219.363 116.683 218.721 118.496ZM216.192 97.3706C212.171 97.2263 208.266 96.955 206.934 95.2869C205.613 93.6325 206.174 89.8462 206.91 85.9462L207.461 85.8406C212.204 84.9294 217.108 83.9863 218.717 86.0094C220.327 88.0325 218.305 92.5981 216.349 97.0144C216.297 97.135 216.245 97.2531 216.192 97.3706ZM205.197 93.2494C203.205 90.9574 201.056 88.8073 198.764 86.815C200.706 87.0225 203.202 86.64 205.854 86.1456C205.36 88.8081 204.984 91.2975 205.197 93.2506V93.2494ZM194.628 83.5094C192.795 82.1598 190.891 80.908 188.926 79.7594L188.933 79.7468L188.067 79.2468L188.058 79.2625C187.666 79.0416 187.272 78.8248 186.877 78.6119C188.834 78.3869 191.184 77.4681 193.671 76.395C193.779 79.1206 193.972 81.6438 194.628 83.5106V83.5094ZM184.488 77.3706C182.613 76.4656 181.487 72.8262 180.467 69.0162L181.024 68.6031C184.856 65.7537 188.819 62.8068 191.086 63.9C193.293 64.9625 193.452 69.8375 193.606 74.5475C193.614 74.8083 193.623 75.0679 193.631 75.3262C189.983 76.9106 186.407 78.2962 184.488 77.3706ZM182.05 76.2838C179.294 75.0899 176.458 74.0914 173.562 73.2956C175.393 72.6337 177.449 71.2331 179.602 69.6538C180.301 72.2381 181.033 74.6262 182.053 76.2831L182.05 76.2838ZM170.979 72.6406C170.953 72.635 170.927 72.63 170.901 72.6237C168.849 72.1237 166.941 68.8262 165.098 65.3325L165.651 64.6843C168.69 61.1218 171.834 57.4425 174.186 57.9775C176.669 58.54 177.936 63.3419 179.156 67.9844C179.212 68.1956 179.268 68.4062 179.323 68.6162C176.163 70.945 173.028 73.07 170.981 72.64L170.979 72.6406ZM168.268 72.0781C165.292 71.5284 162.282 71.1886 159.259 71.0612C160.924 70.0081 162.634 68.1762 164.396 66.1437C165.656 68.5137 166.902 70.6831 168.27 72.08L168.268 72.0781ZM153.736 71.0612C150.765 71.1859 147.806 71.5158 144.881 72.0487C146.232 70.685 147.466 68.5794 148.708 66.2687C150.438 68.2525 152.108 70.0319 153.739 71.0631L153.736 71.0612ZM142.214 72.5831C140.151 73.0494 136.939 70.8263 133.719 68.4375L133.839 67.9825C135.062 63.34 136.326 58.5394 138.809 57.975C141.161 57.44 144.305 61.1219 147.344 64.6819C147.566 64.9419 147.787 65.2006 148.008 65.4581C146.169 68.9088 144.263 72.1206 142.216 72.585L142.214 72.5831ZM139.625 73.2456C136.664 74.0491 133.766 75.0644 130.951 76.2838C131.992 74.59 132.734 72.1306 133.447 69.4794C135.649 71.1069 137.755 72.5669 139.625 73.2456ZM128.516 77.3706C126.626 78.2825 123.133 76.9544 119.546 75.4013C119.558 75.0625 119.57 74.7231 119.582 74.3806C119.744 69.7031 119.911 64.8656 122.086 63.8181C124.379 62.7138 128.359 65.6837 132.206 68.5556L132.581 68.8369C131.548 72.7119 130.418 76.4506 128.513 77.3706H128.516ZM126.126 78.6162C123.488 80.0311 120.951 81.6277 118.534 83.3944C119.181 81.5669 119.386 79.1163 119.503 76.4719C121.923 77.5119 124.211 78.3956 126.125 78.6156L126.126 78.6162ZM114.275 86.7844C111.97 88.7856 109.808 90.9465 107.806 93.2512C108.019 91.2962 107.643 88.8012 107.147 86.1406C109.813 86.6369 112.306 87.0069 114.273 86.7837L114.275 86.7844ZM104.475 97.4244C102.688 99.8591 101.073 102.416 99.6431 105.076C99.4119 103.143 98.4962 100.813 97.4319 98.35C100.12 98.2456 102.625 98.0581 104.473 97.4238L104.475 97.4244ZM97.3069 109.899C96.0955 112.689 95.0846 115.562 94.2819 118.496C93.625 116.639 92.2137 114.561 90.6206 112.386C93.2256 111.679 95.6325 110.938 97.3044 109.899L97.3069 109.899ZM93.0788 123.75C92.5309 126.71 92.1913 129.704 92.0625 132.711C91.0087 131.062 89.1769 129.359 87.15 127.6C89.5156 126.346 91.6875 125.104 93.0762 123.749L93.0788 123.75ZM85.8019 144.347L86.1856 144.021C89.7319 145.888 93.1406 147.818 93.6062 149.864C94.075 151.927 92.0075 155.036 89.6919 158.191C89.3844 158.107 89.0752 158.025 88.7644 157.944C84.2081 156.734 79.4969 155.483 78.9569 153.094C78.3988 150.639 82.1613 147.44 85.7994 144.346L85.8019 144.347ZM94.2819 152.506C95.0672 155.38 96.0523 158.196 97.23 160.933C95.5969 159.909 93.2625 159.17 90.7231 158.472C92.2725 156.348 93.6369 154.32 94.2794 152.506L94.2819 152.506ZM96.8106 173.631C100.831 173.776 104.737 174.047 106.069 175.715C107.389 177.369 106.828 181.153 106.092 185.056L105.541 185.161C100.798 186.073 95.8944 187.015 94.285 184.993C92.6756 182.97 94.6975 178.403 96.6531 173.987C96.7031 173.866 96.755 173.746 96.8081 173.629L96.8106 173.631ZM107.806 177.753C109.797 180.046 111.947 182.197 114.238 184.19C112.297 183.983 109.804 184.365 107.148 184.859C107.64 182.195 108.016 179.703 107.803 177.75L107.806 177.753ZM118.374 187.493C120.839 189.305 123.429 190.941 126.124 192.388C124.167 192.613 121.817 193.531 119.331 194.604C119.221 191.882 119.028 189.356 118.375 187.49L118.374 187.493ZM128.515 193.633C130.39 194.538 131.515 198.178 132.536 201.988L131.979 202.401C128.146 205.25 124.182 208.197 121.916 207.103C119.709 206.041 119.551 201.166 119.397 196.456C119.389 196.196 119.38 195.936 119.371 195.678C123.017 194.091 126.592 192.704 128.512 193.63L128.515 193.633ZM130.952 194.72C133.707 195.913 136.543 196.911 139.438 197.706C137.606 198.367 135.55 199.768 133.396 201.347C132.699 198.763 131.967 196.374 130.947 194.718L130.952 194.72ZM142.024 198.363C142.049 198.369 142.076 198.374 142.101 198.38C144.153 198.88 146.061 202.178 147.905 205.671L147.351 206.319C144.313 209.882 141.169 213.561 138.817 213.026C136.334 212.464 135.067 207.661 133.846 203.019C133.791 202.808 133.735 202.598 133.679 202.388C136.836 200.058 139.968 197.933 142.019 198.361L142.024 198.363ZM144.735 198.926C147.71 199.475 150.721 199.815 153.744 199.942C152.078 200.996 150.369 202.828 148.606 204.86C147.344 202.487 146.098 200.319 144.73 198.921L144.735 198.926ZM156.505 200.005C158.644 200.005 161.223 202.711 163.791 205.68L163.366 206.485C161.161 210.676 158.88 215.008 156.406 215.008H156.402C153.907 215.003 151.631 210.643 149.429 206.427L149.107 205.811C151.706 202.786 154.329 200 156.5 200L156.505 200.005ZM198.312 208.917L203.812 218.443C190.457 226.082 175.448 230.368 160.073 230.933C160.974 230.342 161.713 229.537 162.225 228.589C162.737 227.642 163.005 226.582 163.006 225.505C163.004 224.382 162.711 223.278 162.155 222.302C161.6 221.325 160.801 220.509 159.836 219.934C173.361 219.416 186.56 215.634 198.307 208.912L198.312 208.917ZM157.091 218.996L157.012 215.944C159.79 215.409 161.959 211.293 164.246 206.949L164.486 206.493L164.893 206.969C168.008 210.618 170.963 214.08 173.709 214.08C173.945 214.08 174.18 214.054 174.41 214.002C177.484 213.303 178.767 208.432 180.126 203.274L180.143 203.208L180.199 203.249C184.472 206.439 188.511 209.453 191.35 208.086C194.07 206.778 194.24 201.862 194.42 196.658C194.427 196.45 194.435 196.241 194.442 196.033L194.913 196.24C199.735 198.36 204.288 200.365 206.696 198.441C209.118 196.506 208.171 191.604 207.169 186.413C207.15 186.316 207.132 186.219 207.113 186.122L207.557 186.208C212.669 187.203 217.495 188.146 219.383 185.788C221.354 183.328 219.326 178.716 217.178 173.834C217.144 173.757 217.11 173.679 217.076 173.602L217.37 173.592C222.674 173.419 227.682 173.254 229.041 170.443C230.368 167.693 227.416 163.718 224.286 159.511L224.059 159.206C224.164 159.179 224.268 159.151 224.372 159.123C229.465 157.781 234.276 156.514 234.962 153.511C235.654 150.489 231.862 147.242 227.846 143.804C227.769 143.738 227.691 143.671 227.614 143.605L227.759 143.528C232.237 141.185 236.477 138.966 236.952 136.046L239.994 135.968C239.744 181.596 202.706 218.674 157.091 218.996ZM236.96 135.046C236.555 132.089 232.288 129.848 227.772 127.484L227.849 127.421C231.892 123.984 235.711 120.734 235.022 117.692C234.348 114.712 229.563 113.442 224.496 112.096L223.951 111.951C224.063 111.8 224.175 111.649 224.287 111.498C227.412 107.291 230.369 103.317 229.043 100.566C227.686 97.7537 222.676 97.5906 217.371 97.4175L217.27 97.4137C219.439 92.5137 221.485 87.8875 219.501 85.3931C217.518 82.8987 212.541 83.8525 207.274 84.865L207.113 84.8956C207.133 84.7956 207.151 84.6956 207.171 84.5956C208.171 79.405 209.12 74.5031 206.698 72.5687C204.29 70.6462 199.736 72.6494 194.915 74.7694L194.619 74.8994C194.614 74.7744 194.611 74.6456 194.606 74.5194C194.436 69.28 194.274 64.3319 191.523 63.0037C188.71 61.6475 184.688 64.6388 180.429 67.8044L180.192 67.98C180.171 67.8981 180.149 67.8163 180.129 67.7344C178.771 62.5769 177.488 57.7056 174.414 57.0068C171.473 56.3387 168.278 60.0781 164.897 64.0394L164.603 64.3831L164.466 64.1206C162.15 59.6831 159.954 55.4869 157.096 55.0469L157.017 52.0118C202.642 52.2887 239.708 89.3444 239.997 134.969L236.96 135.046ZM199.171 62.5956L204.671 53.0668C218.843 61.3625 230.651 73.1551 238.964 87.3169L229.406 92.8356C222.065 80.3462 211.658 69.9368 199.171 62.5925V62.5956ZM229.944 72.9275C236.423 77.4368 244.107 79.8971 252 79.99V121.586C249.327 103.069 241.438 86.3781 229.944 72.9244V72.9275ZM252 78.99C241.536 78.8556 232.053 74.5312 225.116 67.5944L232.719 59.9912C237.737 64.8368 244.52 67.8606 252 67.9912V78.99ZM252 66.99C244.796 66.8606 238.263 63.9494 233.426 59.2844L252 40.7075V66.99ZM232.719 58.5769C228.053 53.7406 225.142 47.2069 225.012 40.0031H251.293L232.719 58.5769ZM224.012 40.0031C224.142 47.4825 227.166 54.2663 232.012 59.2838L224.421 66.8706C217.519 59.6146 213.621 50.0134 213.512 39.9993L224.012 40.0031ZM212.512 40.0031C212.597 48.067 215.082 55.9229 219.649 62.5693C205.961 50.7275 188.956 42.6944 170.361 40.0031H212.512ZM162 45.5031C161.998 46.9613 161.418 48.3593 160.387 49.3904C159.356 50.4215 157.958 51.0015 156.5 51.0031C155.042 51.0015 153.644 50.4215 152.613 49.3904C151.582 48.3593 151.002 46.9613 151 45.5031C151.002 44.0449 151.582 42.6469 152.613 41.6158C153.644 40.5848 155.042 40.0048 156.5 40.0031C157.958 40.0048 159.355 40.5844 160.386 41.615C161.417 42.6455 161.998 44.0429 162 45.5006V45.5031ZM94.3044 61.7456C98.6226 55.3127 100.949 47.7496 100.992 40.0018H142.636C124.472 42.6312 107.824 50.3506 94.3044 61.7456ZM90.2294 65.3875C89.6919 65.895 89.16 66.4085 88.6337 66.9281L80.9881 59.2825C85.8344 54.265 88.8575 47.4812 88.9881 40.0018H99.9944C99.9312 49.7106 96.2537 58.5844 90.2294 65.3862V65.3875ZM61 67.9875C68.48 67.8581 75.2631 64.8344 80.2812 59.9875L87.9225 67.6287C87.4842 68.0704 87.0504 68.5168 86.6212 68.9681C79.5165 75.1713 70.4312 78.6356 61 78.7375V67.9875ZM80.2812 58.5743L61.7069 40.0006H87.9875C87.8575 47.2044 84.9469 53.7381 80.2812 58.5743ZM79.5744 59.2819C74.7375 63.9469 68.2044 66.8581 61 66.9875V40.7075L79.5744 59.2819ZM61 79.7375C68.8287 79.6578 76.4675 77.3165 82.9962 72.9956C71.5344 86.4331 63.6681 103.1 61 121.583V79.7375ZM87.3081 69.6962C88.5964 68.5695 89.8121 67.3625 90.9481 66.0825C96.2308 61.1001 102.061 56.7323 108.327 53.0625L113.827 62.5925C101.34 69.935 90.9323 80.3425 83.59 92.83L74.0312 87.3112C77.7626 80.9471 82.2178 75.0361 87.3081 69.6962V69.6962ZM156.013 52.0087L156.092 55.0444C153.272 55.4925 151.069 59.6594 148.754 64.0569L148.514 64.5125L148.107 64.0369C144.726 60.0762 141.532 56.3362 138.59 57.0043C135.516 57.7031 134.233 62.5744 132.874 67.7319C132.868 67.7538 132.862 67.7762 132.857 67.7987L132.801 67.7568C128.528 64.5693 124.489 61.5531 121.65 62.92C118.93 64.2287 118.76 69.1437 118.58 74.3481C118.573 74.5562 118.565 74.765 118.558 74.9731L118.087 74.7662C113.266 72.6462 108.712 70.6413 106.304 72.5656C103.882 74.5031 104.829 79.4025 105.831 84.5925C105.85 84.6894 105.868 84.7869 105.887 84.8837L105.443 84.7981C100.331 83.8025 95.505 82.8606 93.6175 85.2187C91.6462 87.6787 93.6744 92.29 95.8219 97.1719C95.8556 97.2494 95.89 97.3269 95.9244 97.4044L95.63 97.4144C90.3256 97.5875 85.3175 97.7513 83.9594 100.563C82.6319 103.313 85.5844 107.288 88.7144 111.495C88.7894 111.597 88.8648 111.699 88.9406 111.8L88.6281 111.883C83.535 113.225 78.7244 114.493 78.0375 117.495C77.3456 120.517 81.1381 123.764 85.1537 127.203L85.3862 127.401L85.2406 127.478C80.76 129.823 76.5175 132.045 76.0469 134.965L73.0056 135.044C73.2531 89.3706 110.347 52.2694 156.013 52.0062V52.0087ZM76.0406 135.963C76.45 138.917 80.7144 141.157 85.2281 143.519L85.1512 143.582C81.1081 147.019 77.2894 150.266 77.9781 153.311C78.6525 156.291 83.4381 157.561 88.505 158.907L89.05 159.052L88.7137 159.505C85.5887 163.712 82.6313 167.685 83.9581 170.437C85.315 173.249 90.325 173.413 95.6294 173.586L95.7306 173.589C93.5612 178.489 91.5156 183.116 93.4994 185.61C95.4831 188.104 100.46 187.151 105.727 186.138L105.887 186.108C105.868 186.208 105.849 186.308 105.83 186.408C104.83 191.595 103.881 196.5 106.303 198.434C108.711 200.357 113.264 198.354 118.086 196.234L118.382 196.104C118.386 196.229 118.39 196.354 118.394 196.484C118.565 201.723 118.727 206.671 121.478 207.999C124.291 209.355 128.313 206.364 132.572 203.199L132.809 203.023C132.83 203.105 132.852 203.187 132.871 203.269C134.23 208.426 135.513 213.298 138.587 213.996C141.529 214.664 144.723 210.924 148.104 206.964L148.398 206.62L148.534 206.883C150.879 211.373 153.101 215.613 156.009 215.966L156.087 218.993C110.414 218.772 73.2963 181.696 73.0038 136.039L76.0406 135.963ZM113.829 208.408L108.329 217.936C94.1567 209.641 82.3491 197.848 74.0356 183.686L83.5938 178.169C90.9356 190.657 101.342 201.065 113.829 208.408V208.408ZM83.0562 198.076C76.5772 193.567 68.8934 191.106 61 191.014V149.418C63.6731 167.933 71.5625 184.621 83.0562 198.076V198.076ZM61 192.014C71.4644 192.148 80.9475 196.472 87.8844 203.409L80.2812 211.013C75.2631 206.166 68.48 203.143 61 203.013V192.014ZM61 204.014C68.2044 204.143 74.7375 207.054 79.5744 211.719L61 230.293V204.014ZM80.2812 212.426C84.9469 217.263 87.8575 223.796 87.9875 231.001H61.7069L80.2812 212.426ZM151 225.5C151.002 224.042 151.582 222.644 152.613 221.613C153.644 220.582 155.042 220.002 156.5 220C157.958 220.002 159.356 220.582 160.387 221.613C161.418 222.644 161.998 224.042 162 225.5C161.998 226.958 161.418 228.356 160.387 229.387C159.356 230.418 157.958 230.998 156.5 231C155.042 230.998 153.644 230.418 152.613 229.387C151.582 228.356 151.002 226.958 151 225.5V225.5ZM232.719 212.426L251.293 231H225.012C225.142 223.796 228.053 217.263 232.719 212.426ZM233.426 211.719C238.263 207.054 244.796 204.143 252 204.013V230.293L233.426 211.719ZM239.468 182.824L229.912 177.307C236.424 165.926 240.179 153.178 240.875 140.084C242.554 144.328 246.489 147.441 251.194 147.932C249.605 160.218 245.621 172.072 239.468 182.824V182.824ZM229.912 93.6931L239.468 88.1756C245.621 98.9279 249.605 110.783 251.194 123.069C246.488 123.559 242.554 126.673 240.874 130.916C240.179 117.822 236.424 105.074 229.912 93.6931ZM256 71.0006H253V39.7075L256 36.7075V71.0006ZM252.293 39.0006H60.7069L57.7069 36.0006H255.293L252.293 39.0006ZM60 39.7075V71.0006H57V36.7075L60 39.7075ZM57 72.0006H60V103.001H57V72.0006ZM73.5312 88.1756L83.0881 93.6931C76.5757 105.074 72.821 117.822 72.125 130.916C70.4456 126.673 66.5113 123.559 61.8056 123.069C63.3949 110.783 67.3787 98.928 73.5312 88.1756V88.1756ZM83.0881 177.308L73.5319 182.826C67.3789 172.074 63.3952 160.219 61.8062 147.933C66.5119 147.443 70.4463 144.329 72.1256 140.086C72.8212 153.179 76.5758 165.928 83.0881 177.308V177.308ZM57 200H60V231.293L57 234.293V200ZM60.7069 232H92V235H57.7069L60.7069 232ZM93 232H124V235H93V232ZM125 232H188V235H125V232ZM189 232H220V235H189V232ZM221 232H252.293L255.293 235H221V232ZM253 231.293V200H256V234.293L253 231.293ZM256 199H253V168H256V199ZM252.5 147C249.903 147.002 247.383 146.12 245.354 144.5H259.646C257.617 146.12 255.097 147.002 252.5 147.001V147ZM249.316 135.694C248.65 135.038 248.209 134.186 248.057 133.263C247.906 132.34 248.052 131.393 248.474 130.558L249.766 128H255.234L256.526 130.558C256.948 131.393 257.094 132.34 256.943 133.263C256.791 134.186 256.35 135.038 255.684 135.694C254.835 136.529 253.691 136.998 252.5 136.998C251.309 136.998 250.165 136.53 249.316 135.694V135.694ZM251.945 143.5C252.159 143.289 252.346 143.052 252.5 142.793C252.654 143.052 252.841 143.289 253.055 143.5H251.945ZM253 123.013V104H256V123.5C255.024 123.216 254.016 123.052 253 123.013V123.013ZM57 104H60V123.013C58.9838 123.052 57.9762 123.217 57 123.502V104ZM49 135.5C49 129.158 54.1588 124 60.5 124C66.8412 124 72 129.158 72 135.5C72.0012 138.488 70.835 141.359 68.75 143.5H63.5C62.8372 143.499 62.2018 143.236 61.7332 142.767C61.2645 142.298 61.0008 141.663 61 141V137.973C62.2775 137.861 63.4758 137.306 64.3875 136.404C65.2047 135.6 65.745 134.556 65.9302 133.424C66.1155 132.292 65.9362 131.131 65.4181 130.108L63.9881 127.274C63.9464 127.192 63.8826 127.123 63.8038 127.074C63.725 127.026 63.6344 127 63.5419 127H57.4581C57.3656 127 57.275 127.026 57.1962 127.074C57.1174 127.123 57.0536 127.192 57.0119 127.274L55.5819 130.108C55.0638 131.131 54.8845 132.292 55.0698 133.424C55.255 134.556 55.7953 135.6 56.6125 136.404C57.5242 137.306 58.7225 137.861 60 137.973V141C59.9992 141.663 59.7355 142.298 59.2668 142.767C58.7982 143.236 58.1628 143.499 57.5 143.5H52.25C50.1651 141.359 48.9989 138.489 49 135.501V135.5ZM60 147.987V166.999H57V147.499C57.9763 147.784 58.9838 147.948 60 147.988V147.987ZM256 166.999H253V147.987C254.016 147.947 255.024 147.783 256 147.498V166.999Z" fill="url(#paint1_linear_826_73)"/>
<rect x="25" y="5" width="262" height="262" rx="27" stroke="url(#paint2_linear_826_73)" stroke-width="2"/>
</g>
<defs>
<filter id="filter0_d_826_73" x="0" y="0" width="312" height="312" filterUnits="userSpaceOnUse" color-interpolation-filters="sRGB">
<feFlood flood-opacity="0" result="BackgroundImageFix"/>
<feColorMatrix in="SourceAlpha" type="matrix" values="0 0 0 0 0 0 0 0 0 0 0 0 0 0 0 0 0 0 127 0" result="hardAlpha"/>
<feOffset dy="20"/>
<feGaussianBlur stdDeviation="12"/>
<feComposite in2="hardAlpha" operator="out"/>
<feColorMatrix type="matrix" values="0 0 0 0 0 0 0 0 0 0 0 0 0 0 0 0 0 0 1 0"/>
<feBlend mode="normal" in2="BackgroundImageFix" result="effect1_dropShadow_826_73"/>
<feBlend mode="normal" in="SourceGraphic" in2="effect1_dropShadow_826_73" result="shape"/>
</filter>
<linearGradient id="paint0_linear_826_73" x1="24" y1="4" x2="288" y2="268" gradientUnits="userSpaceOnUse">
<stop stop-color="#0D0D15"/>
<stop offset="0.5625"/>
<stop offset="0.760417" stop-color="#0A0A11"/>
<stop offset="1" stop-color="#020204"/>
</linearGradient>
<linearGradient id="paint1_linear_826_73" x1="48" y1="236" x2="304.056" y2="125.519" gradientUnits="userSpaceOnUse">
<stop stop-color="#202128"/>
<stop offset="0.322917" stop-color="#414559"/>
<stop offset="0.588542" stop-color="#1B1C20"/>
<stop offset="0.734375" stop-color="#1C1E23"/>
<stop offset="1" stop-color="#14151B"/>
</linearGradient>
<linearGradient id="paint2_linear_826_73" x1="24" y1="268" x2="342.618" y2="140.662" gradientUnits="userSpaceOnUse">
<stop stop-color="#202128"/>
<stop offset="0.322917" stop-color="#414559"/>
<stop offset="0.588542" stop-color="#1B1C20"/>
<stop offset="0.734375" stop-color="#1C1E23"/>
<stop offset="1" stop-color="#14151B"/>
</linearGradient>
</defs>
</svg>
